<svg width="257" height="429" viewBox="0 0 257 429" fill="none" xmlns="http://www.w3.org/2000/svg">
<g opacity="0.1">
<path d="M17.1333 8.56667C17.1333 13.2979 13.2979 17.1333 8.56667 17.1333C3.83543 17.1333 0 13.2979 0 8.56667C0 3.83543 3.83543 0 8.56667 0C13.2979 0 17.1333 3.83543 17.1333 8.56667Z" fill="#E24345"/>
<path d="M51.4 8.56667C51.4 13.2979 47.5646 17.1333 42.8333 17.1333C38.1021 17.1333 34.2667 13.2979 34.2667 8.56667C34.2667 3.83543 38.1021 0 42.8333 0C47.5646 0 51.4 3.83543 51.4 8.56667Z" fill="#E24345"/>
<path d="M85.6667 8.56667C85.6667 13.2979 81.8312 17.1333 77.1 17.1333C72.3688 17.1333 68.5333 13.2979 68.5333 8.56667C68.5333 3.83543 72.3688 0 77.1 0C81.8312 0 85.6667 3.83543 85.6667 8.56667Z" fill="#E24345"/>
<path d="M119.933 8.56667C119.933 13.2979 116.098 17.1333 111.367 17.1333C106.635 17.1333 102.8 13.2979 102.8 8.56667C102.8 3.83543 106.635 0 111.367 0C116.098 0 119.933 3.83543 119.933 8.56667Z" fill="#E24345"/>
<path d="M154.2 8.56667C154.2 13.2979 150.365 17.1333 145.633 17.1333C140.902 17.1333 137.067 13.2979 137.067 8.56667C137.067 3.83543 140.902 0 145.633 0C150.365 0 154.2 3.83543 154.2 8.56667Z" fill="#E24345"/>
<path d="M188.467 8.56667C188.467 13.2979 184.631 17.1333 179.9 17.1333C175.169 17.1333 171.333 13.2979 171.333 8.56667C171.333 3.83543 175.169 0 179.9 0C184.631 0 188.467 3.83543 188.467 8.56667Z" fill="#E24345"/>
<path d="M222.733 8.56667C222.733 13.2979 218.898 17.1333 214.167 17.1333C209.435 17.1333 205.6 13.2979 205.6 8.56667C205.6 3.83543 209.435 0 214.167 0C218.898 0 222.733 3.83543 222.733 8.56667Z" fill="#E24345"/>
<path d="M257 8.56667C257 13.2979 253.165 17.1333 248.433 17.1333C243.702 17.1333 239.867 13.2979 239.867 8.56667C239.867 3.83543 243.702 0 248.433 0C253.165 0 257 3.83543 257 8.56667Z" fill="#E24345"/>
<path d="M17.1333 42.8333C17.1333 47.5646 13.2979 51.4 8.56667 51.4C3.83543 51.4 0 47.5646 0 42.8333C0 38.1021 3.83543 34.2667 8.56667 34.2667C13.2979 34.2667 17.1333 38.1021 17.1333 42.8333Z" fill="#E24345"/>
<path d="M51.4 42.8333C51.4 47.5646 47.5646 51.4 42.8333 51.4C38.1021 51.4 34.2667 47.5646 34.2667 42.8333C34.2667 38.1021 38.1021 34.2667 42.8333 34.2667C47.5646 34.2667 51.4 38.1021 51.4 42.8333Z" fill="#E24345"/>
<path d="M85.6667 42.8333C85.6667 47.5646 81.8312 51.4 77.1 51.4C72.3688 51.4 68.5333 47.5646 68.5333 42.8333C68.5333 38.1021 72.3688 34.2667 77.1 34.2667C81.8312 34.2667 85.6667 38.1021 85.6667 42.8333Z" fill="#E24345"/>
<path d="M119.933 42.8333C119.933 47.5646 116.098 51.4 111.367 51.4C106.635 51.4 102.8 47.5646 102.8 42.8333C102.8 38.1021 106.635 34.2667 111.367 34.2667C116.098 34.2667 119.933 38.1021 119.933 42.8333Z" fill="#E24345"/>
<path d="M154.2 42.8333C154.2 47.5646 150.365 51.4 145.633 51.4C140.902 51.4 137.067 47.5646 137.067 42.8333C137.067 38.1021 140.902 34.2667 145.633 34.2667C150.365 34.2667 154.2 38.1021 154.2 42.8333Z" fill="#E24345"/>
<path d="M188.467 42.8333C188.467 47.5646 184.631 51.4 179.9 51.4C175.169 51.4 171.333 47.5646 171.333 42.8333C171.333 38.1021 175.169 34.2667 179.9 34.2667C184.631 34.2667 188.467 38.1021 188.467 42.8333Z" fill="#E24345"/>
<path d="M222.733 42.8333C222.733 47.5646 218.898 51.4 214.167 51.4C209.435 51.4 205.6 47.5646 205.6 42.8333C205.6 38.1021 209.435 34.2667 214.167 34.2667C218.898 34.2667 222.733 38.1021 222.733 42.8333Z" fill="#E24345"/>
<path d="M257 42.8333C257 47.5646 253.165 51.4 248.433 51.4C243.702 51.4 239.867 47.5646 239.867 42.8333C239.867 38.1021 243.702 34.2667 248.433 34.2667C253.165 34.2667 257 38.1021 257 42.8333Z" fill="#E24345"/>
<path d="M17.1333 77.1C17.1333 81.8312 13.2979 85.6667 8.56667 85.6667C3.83543 85.6667 0 81.8312 0 77.1C0 72.3688 3.83543 68.5333 8.56667 68.5333C13.2979 68.5333 17.1333 72.3688 17.1333 77.1Z" fill="#E24345"/>
<path d="M51.4 77.1C51.4 81.8312 47.5646 85.6667 42.8333 85.6667C38.1021 85.6667 34.2667 81.8312 34.2667 77.1C34.2667 72.3688 38.1021 68.5333 42.8333 68.5333C47.5646 68.5333 51.4 72.3688 51.4 77.1Z" fill="#E24345"/>
<path d="M85.6667 77.1C85.6667 81.8312 81.8312 85.6667 77.1 85.6667C72.3688 85.6667 68.5333 81.8312 68.5333 77.1C68.5333 72.3688 72.3688 68.5333 77.1 68.5333C81.8312 68.5333 85.6667 72.3688 85.6667 77.1Z" fill="#E24345"/>
<path d="M119.933 77.1C119.933 81.8312 116.098 85.6667 111.367 85.6667C106.635 85.6667 102.8 81.8312 102.8 77.1C102.8 72.3688 106.635 68.5333 111.367 68.5333C116.098 68.5333 119.933 72.3688 119.933 77.1Z" fill="#E24345"/>
<path d="M154.2 77.1C154.2 81.8312 150.365 85.6667 145.633 85.6667C140.902 85.6667 137.067 81.8312 137.067 77.1C137.067 72.3688 140.902 68.5333 145.633 68.5333C150.365 68.5333 154.2 72.3688 154.2 77.1Z" fill="#E24345"/>
<path d="M188.467 77.1C188.467 81.8312 184.631 85.6667 179.9 85.6667C175.169 85.6667 171.333 81.8312 171.333 77.1C171.333 72.3688 175.169 68.5333 179.9 68.5333C184.631 68.5333 188.467 72.3688 188.467 77.1Z" fill="#E24345"/>
<path d="M222.733 77.1C222.733 81.8312 218.898 85.6667 214.167 85.6667C209.435 85.6667 205.6 81.8312 205.6 77.1C205.6 72.3688 209.435 68.5333 214.167 68.5333C218.898 68.5333 222.733 72.3688 222.733 77.1Z" fill="#E24345"/>
<path d="M257 77.1C257 81.8312 253.165 85.6667 248.433 85.6667C243.702 85.6667 239.867 81.8312 239.867 77.1C239.867 72.3688 243.702 68.5333 248.433 68.5333C253.165 68.5333 257 72.3688 257 77.1Z" fill="#E24345"/>
<path d="M17.1333 111.367C17.1333 116.098 13.2979 119.933 8.56667 119.933C3.83543 119.933 0 116.098 0 111.367C0 106.635 3.83543 102.8 8.56667 102.8C13.2979 102.8 17.1333 106.635 17.1333 111.367Z" fill="#E24345"/>
<path d="M51.4 111.367C51.4 116.098 47.5646 119.933 42.8333 119.933C38.1021 119.933 34.2667 116.098 34.2667 111.367C34.2667 106.635 38.1021 102.8 42.8333 102.8C47.5646 102.8 51.4 106.635 51.4 111.367Z" fill="#E24345"/>
<path d="M85.6667 111.367C85.6667 116.098 81.8312 119.933 77.1 119.933C72.3688 119.933 68.5333 116.098 68.5333 111.367C68.5333 106.635 72.3688 102.8 77.1 102.8C81.8312 102.8 85.6667 106.635 85.6667 111.367Z" fill="#E24345"/>
<path d="M119.933 111.367C119.933 116.098 116.098 119.933 111.367 119.933C106.635 119.933 102.8 116.098 102.8 111.367C102.8 106.635 106.635 102.8 111.367 102.8C116.098 102.8 119.933 106.635 119.933 111.367Z" fill="#E24345"/>
<path d="M154.2 111.367C154.2 116.098 150.365 119.933 145.633 119.933C140.902 119.933 137.067 116.098 137.067 111.367C137.067 106.635 140.902 102.8 145.633 102.8C150.365 102.8 154.2 106.635 154.2 111.367Z" fill="#E24345"/>
<path d="M188.467 111.367C188.467 116.098 184.631 119.933 179.9 119.933C175.169 119.933 171.333 116.098 171.333 111.367C171.333 106.635 175.169 102.8 179.9 102.8C184.631 102.8 188.467 106.635 188.467 111.367Z" fill="#E24345"/>
<path d="M222.733 111.367C222.733 116.098 218.898 119.933 214.167 119.933C209.435 119.933 205.6 116.098 205.6 111.367C205.6 106.635 209.435 102.8 214.167 102.8C218.898 102.8 222.733 106.635 222.733 111.367Z" fill="#E24345"/>
<path d="M257 111.367C257 116.098 253.165 119.933 248.433 119.933C243.702 119.933 239.867 116.098 239.867 111.367C239.867 106.635 243.702 102.8 248.433 102.8C253.165 102.8 257 106.635 257 111.367Z" fill="#E24345"/>
<path d="M17.1333 145.633C17.1333 150.365 13.2979 154.2 8.56667 154.2C3.83543 154.2 0 150.365 0 145.633C0 140.902 3.83543 137.067 8.56667 137.067C13.2979 137.067 17.1333 140.902 17.1333 145.633Z" fill="#E24345"/>
<path d="M51.4 145.633C51.4 150.365 47.5646 154.2 42.8333 154.2C38.1021 154.2 34.2667 150.365 34.2667 145.633C34.2667 140.902 38.1021 137.067 42.8333 137.067C47.5646 137.067 51.4 140.902 51.4 145.633Z" fill="#E24345"/>
<path d="M85.6667 145.633C85.6667 150.365 81.8312 154.2 77.1 154.2C72.3688 154.2 68.5333 150.365 68.5333 145.633C68.5333 140.902 72.3688 137.067 77.1 137.067C81.8312 137.067 85.6667 140.902 85.6667 145.633Z" fill="#E24345"/>
<path d="M119.933 145.633C119.933 150.365 116.098 154.2 111.367 154.2C106.635 154.2 102.8 150.365 102.8 145.633C102.8 140.902 106.635 137.067 111.367 137.067C116.098 137.067 119.933 140.902 119.933 145.633Z" fill="#E24345"/>
<path d="M154.2 145.633C154.2 150.365 150.365 154.2 145.633 154.2C140.902 154.2 137.067 150.365 137.067 145.633C137.067 140.902 140.902 137.067 145.633 137.067C150.365 137.067 154.2 140.902 154.2 145.633Z" fill="#E24345"/>
<path d="M188.467 145.633C188.467 150.365 184.631 154.2 179.9 154.2C175.169 154.2 171.333 150.365 171.333 145.633C171.333 140.902 175.169 137.067 179.9 137.067C184.631 137.067 188.467 140.902 188.467 145.633Z" fill="#E24345"/>
<path d="M222.733 145.633C222.733 150.365 218.898 154.2 214.167 154.2C209.435 154.2 205.6 150.365 205.6 145.633C205.6 140.902 209.435 137.067 214.167 137.067C218.898 137.067 222.733 140.902 222.733 145.633Z" fill="#E24345"/>
<path d="M257 145.633C257 150.365 253.165 154.2 248.433 154.2C243.702 154.2 239.867 150.365 239.867 145.633C239.867 140.902 243.702 137.067 248.433 137.067C253.165 137.067 257 140.902 257 145.633Z" fill="#E24345"/>
<path d="M17.1333 179.9C17.1333 184.631 13.2979 188.467 8.56667 188.467C3.83543 188.467 0 184.631 0 179.9C0 175.169 3.83543 171.333 8.56667 171.333C13.2979 171.333 17.1333 175.169 17.1333 179.9Z" fill="#E24345"/>
<path d="M51.4 179.9C51.4 184.631 47.5646 188.467 42.8333 188.467C38.1021 188.467 34.2667 184.631 34.2667 179.9C34.2667 175.169 38.1021 171.333 42.8333 171.333C47.5646 171.333 51.4 175.169 51.4 179.9Z" fill="#E24345"/>
<path d="M85.6667 179.9C85.6667 184.631 81.8312 188.467 77.1 188.467C72.3688 188.467 68.5333 184.631 68.5333 179.9C68.5333 175.169 72.3688 171.333 77.1 171.333C81.8312 171.333 85.6667 175.169 85.6667 179.9Z" fill="#E24345"/>
<path d="M119.933 179.9C119.933 184.631 116.098 188.467 111.367 188.467C106.635 188.467 102.8 184.631 102.8 179.9C102.8 175.169 106.635 171.333 111.367 171.333C116.098 171.333 119.933 175.169 119.933 179.9Z" fill="#E24345"/>
<path d="M154.2 179.9C154.2 184.631 150.365 188.467 145.633 188.467C140.902 188.467 137.067 184.631 137.067 179.9C137.067 175.169 140.902 171.333 145.633 171.333C150.365 171.333 154.2 175.169 154.2 179.9Z" fill="#E24345"/>
<path d="M188.467 179.9C188.467 184.631 184.631 188.467 179.9 188.467C175.169 188.467 171.333 184.631 171.333 179.9C171.333 175.169 175.169 171.333 179.9 171.333C184.631 171.333 188.467 175.169 188.467 179.9Z" fill="#E24345"/>
<path d="M222.733 179.9C222.733 184.631 218.898 188.467 214.167 188.467C209.435 188.467 205.6 184.631 205.6 179.9C205.6 175.169 209.435 171.333 214.167 171.333C218.898 171.333 222.733 175.169 222.733 179.9Z" fill="#E24345"/>
<path d="M257 179.9C257 184.631 253.165 188.467 248.433 188.467C243.702 188.467 239.867 184.631 239.867 179.9C239.867 175.169 243.702 171.333 248.433 171.333C253.165 171.333 257 175.169 257 179.9Z" fill="#E24345"/>
<path d="M17.1333 214.167C17.1333 218.898 13.2979 222.733 8.56667 222.733C3.83543 222.733 0 218.898 0 214.167C0 209.435 3.83543 205.6 8.56667 205.6C13.2979 205.6 17.1333 209.435 17.1333 214.167Z" fill="#E24345"/>
<path d="M51.4 214.167C51.4 218.898 47.5646 222.733 42.8333 222.733C38.1021 222.733 34.2667 218.898 34.2667 214.167C34.2667 209.435 38.1021 205.6 42.8333 205.6C47.5646 205.6 51.4 209.435 51.4 214.167Z" fill="#E24345"/>
<path d="M85.6667 214.167C85.6667 218.898 81.8312 222.733 77.1 222.733C72.3688 222.733 68.5333 218.898 68.5333 214.167C68.5333 209.435 72.3688 205.6 77.1 205.6C81.8312 205.6 85.6667 209.435 85.6667 214.167Z" fill="#E24345"/>
<path d="M119.933 214.167C119.933 218.898 116.098 222.733 111.367 222.733C106.635 222.733 102.8 218.898 102.8 214.167C102.8 209.435 106.635 205.6 111.367 205.6C116.098 205.6 119.933 209.435 119.933 214.167Z" fill="#E24345"/>
<path d="M154.2 214.167C154.2 218.898 150.365 222.733 145.633 222.733C140.902 222.733 137.067 218.898 137.067 214.167C137.067 209.435 140.902 205.6 145.633 205.6C150.365 205.6 154.2 209.435 154.2 214.167Z" fill="#E24345"/>
<path d="M188.467 214.167C188.467 218.898 184.631 222.733 179.9 222.733C175.169 222.733 171.333 218.898 171.333 214.167C171.333 209.435 175.169 205.6 179.9 205.6C184.631 205.6 188.467 209.435 188.467 214.167Z" fill="#E24345"/>
<path d="M222.733 214.167C222.733 218.898 218.898 222.733 214.167 222.733C209.435 222.733 205.6 218.898 205.6 214.167C205.6 209.435 209.435 205.6 214.167 205.6C218.898 205.6 222.733 209.435 222.733 214.167Z" fill="#E24345"/>
<path d="M257 214.167C257 218.898 253.165 222.733 248.433 222.733C243.702 222.733 239.867 218.898 239.867 214.167C239.867 209.435 243.702 205.6 248.433 205.6C253.165 205.6 257 209.435 257 214.167Z" fill="#E24345"/>
<path d="M17.1333 248.433C17.1333 253.165 13.2979 257 8.56667 257C3.83543 257 0 253.165 0 248.433C0 243.702 3.83543 239.867 8.56667 239.867C13.2979 239.867 17.1333 243.702 17.1333 248.433Z" fill="#E24345"/>
<path d="M51.4 248.433C51.4 253.165 47.5646 257 42.8333 257C38.1021 257 34.2667 253.165 34.2667 248.433C34.2667 243.702 38.1021 239.867 42.8333 239.867C47.5646 239.867 51.4 243.702 51.4 248.433Z" fill="#E24345"/>
<path d="M85.6667 248.433C85.6667 253.165 81.8312 257 77.1 257C72.3688 257 68.5333 253.165 68.5333 248.433C68.5333 243.702 72.3688 239.867 77.1 239.867C81.8312 239.867 85.6667 243.702 85.6667 248.433Z" fill="#E24345"/>
<path d="M119.933 248.433C119.933 253.165 116.098 257 111.367 257C106.635 257 102.8 253.165 102.8 248.433C102.8 243.702 106.635 239.867 111.367 239.867C116.098 239.867 119.933 243.702 119.933 248.433Z" fill="#E24345"/>
<path d="M154.2 248.433C154.2 253.165 150.365 257 145.633 257C140.902 257 137.067 253.165 137.067 248.433C137.067 243.702 140.902 239.867 145.633 239.867C150.365 239.867 154.2 243.702 154.2 248.433Z" fill="#E24345"/>
<path d="M188.467 248.433C188.467 253.165 184.631 257 179.9 257C175.169 257 171.333 253.165 171.333 248.433C171.333 243.702 175.169 239.867 179.9 239.867C184.631 239.867 188.467 243.702 188.467 248.433Z" fill="#E24345"/>
<path d="M222.733 248.433C222.733 253.165 218.898 257 214.167 257C209.435 257 205.6 253.165 205.6 248.433C205.6 243.702 209.435 239.867 214.167 239.867C218.898 239.867 222.733 243.702 222.733 248.433Z" fill="#E24345"/>
<path d="M257 248.433C257 253.165 253.165 257 248.433 257C243.702 257 239.867 253.165 239.867 248.433C239.867 243.702 243.702 239.867 248.433 239.867C253.165 239.867 257 243.702 257 248.433Z" fill="#E24345"/>
<path d="M17.1333 282.7C17.1333 287.431 13.2979 291.267 8.56667 291.267C3.83543 291.267 0 287.431 0 282.7C0 277.969 3.83543 274.133 8.56667 274.133C13.2979 274.133 17.1333 277.969 17.1333 282.7Z" fill="#E24345"/>
<path d="M51.4 282.7C51.4 287.431 47.5646 291.267 42.8333 291.267C38.1021 291.267 34.2667 287.431 34.2667 282.7C34.2667 277.969 38.1021 274.133 42.8333 274.133C47.5646 274.133 51.4 277.969 51.4 282.7Z" fill="#E24345"/>
<path d="M85.6667 282.7C85.6667 287.431 81.8312 291.267 77.1 291.267C72.3688 291.267 68.5333 287.431 68.5333 282.7C68.5333 277.969 72.3688 274.133 77.1 274.133C81.8312 274.133 85.6667 277.969 85.6667 282.7Z" fill="#E24345"/>
<path d="M119.933 282.7C119.933 287.431 116.098 291.267 111.367 291.267C106.635 291.267 102.8 287.431 102.8 282.7C102.8 277.969 106.635 274.133 111.367 274.133C116.098 274.133 119.933 277.969 119.933 282.7Z" fill="#E24345"/>
<path d="M154.2 282.7C154.2 287.431 150.365 291.267 145.633 291.267C140.902 291.267 137.067 287.431 137.067 282.7C137.067 277.969 140.902 274.133 145.633 274.133C150.365 274.133 154.2 277.969 154.2 282.7Z" fill="#E24345"/>
<path d="M188.467 282.7C188.467 287.431 184.631 291.267 179.9 291.267C175.169 291.267 171.333 287.431 171.333 282.7C171.333 277.969 175.169 274.133 179.9 274.133C184.631 274.133 188.467 277.969 188.467 282.7Z" fill="#E24345"/>
<path d="M222.733 282.7C222.733 287.431 218.898 291.267 214.167 291.267C209.435 291.267 205.6 287.431 205.6 282.7C205.6 277.969 209.435 274.133 214.167 274.133C218.898 274.133 222.733 277.969 222.733 282.7Z" fill="#E24345"/>
<path d="M257 282.7C257 287.431 253.165 291.267 248.433 291.267C243.702 291.267 239.867 287.431 239.867 282.7C239.867 277.969 243.702 274.133 248.433 274.133C253.165 274.133 257 277.969 257 282.7Z" fill="#E24345"/>
<path d="M17.1333 316.967C17.1333 321.698 13.2979 325.533 8.56667 325.533C3.83543 325.533 0 321.698 0 316.967C0 312.235 3.83543 308.4 8.56667 308.4C13.2979 308.4 17.1333 312.235 17.1333 316.967Z" fill="#E24345"/>
<path d="M51.4 316.967C51.4 321.698 47.5646 325.533 42.8333 325.533C38.1021 325.533 34.2667 321.698 34.2667 316.967C34.2667 312.235 38.1021 308.4 42.8333 308.4C47.5646 308.4 51.4 312.235 51.4 316.967Z" fill="#E24345"/>
<path d="M85.6667 316.967C85.6667 321.698 81.8312 325.533 77.1 325.533C72.3688 325.533 68.5333 321.698 68.5333 316.967C68.5333 312.235 72.3688 308.4 77.1 308.4C81.8312 308.4 85.6667 312.235 85.6667 316.967Z" fill="#E24345"/>
<path d="M119.933 316.967C119.933 321.698 116.098 325.533 111.367 325.533C106.635 325.533 102.8 321.698 102.8 316.967C102.8 312.235 106.635 308.4 111.367 308.4C116.098 308.4 119.933 312.235 119.933 316.967Z" fill="#E24345"/>
<path d="M154.2 316.967C154.2 321.698 150.365 325.533 145.633 325.533C140.902 325.533 137.067 321.698 137.067 316.967C137.067 312.235 140.902 308.4 145.633 308.4C150.365 308.4 154.2 312.235 154.2 316.967Z" fill="#E24345"/>
<path d="M188.467 316.967C188.467 321.698 184.631 325.533 179.9 325.533C175.169 325.533 171.333 321.698 171.333 316.967C171.333 312.235 175.169 308.4 179.9 308.4C184.631 308.4 188.467 312.235 188.467 316.967Z" fill="#E24345"/>
<path d="M222.733 316.967C222.733 321.698 218.898 325.533 214.167 325.533C209.435 325.533 205.6 321.698 205.6 316.967C205.6 312.235 209.435 308.4 214.167 308.4C218.898 308.4 222.733 312.235 222.733 316.967Z" fill="#E24345"/>
<path d="M257 316.967C257 321.698 253.165 325.533 248.433 325.533C243.702 325.533 239.867 321.698 239.867 316.967C239.867 312.235 243.702 308.4 248.433 308.4C253.165 308.4 257 312.235 257 316.967Z" fill="#E24345"/>
<path d="M17.1333 351.233C17.1333 355.965 13.2979 359.8 8.56667 359.8C3.83543 359.8 0 355.965 0 351.233C0 346.502 3.83543 342.667 8.56667 342.667C13.2979 342.667 17.1333 346.502 17.1333 351.233Z" fill="#E24345"/>
<path d="M51.4 351.233C51.4 355.965 47.5646 359.8 42.8333 359.8C38.1021 359.8 34.2667 355.965 34.2667 351.233C34.2667 346.502 38.1021 342.667 42.8333 342.667C47.5646 342.667 51.4 346.502 51.4 351.233Z" fill="#E24345"/>
<path d="M85.6667 351.233C85.6667 355.965 81.8312 359.8 77.1 359.8C72.3688 359.8 68.5333 355.965 68.5333 351.233C68.5333 346.502 72.3688 342.667 77.1 342.667C81.8312 342.667 85.6667 346.502 85.6667 351.233Z" fill="#E24345"/>
<path d="M119.933 351.233C119.933 355.965 116.098 359.8 111.367 359.8C106.635 359.8 102.8 355.965 102.8 351.233C102.8 346.502 106.635 342.667 111.367 342.667C116.098 342.667 119.933 346.502 119.933 351.233Z" fill="#E24345"/>
<path d="M154.2 351.233C154.2 355.965 150.365 359.8 145.633 359.8C140.902 359.8 137.067 355.965 137.067 351.233C137.067 346.502 140.902 342.667 145.633 342.667C150.365 342.667 154.2 346.502 154.2 351.233Z" fill="#E24345"/>
<path d="M188.467 351.233C188.467 355.965 184.631 359.8 179.9 359.8C175.169 359.8 171.333 355.965 171.333 351.233C171.333 346.502 175.169 342.667 179.9 342.667C184.631 342.667 188.467 346.502 188.467 351.233Z" fill="#E24345"/>
<path d="M222.733 351.233C222.733 355.965 218.898 359.8 214.167 359.8C209.435 359.8 205.6 355.965 205.6 351.233C205.6 346.502 209.435 342.667 214.167 342.667C218.898 342.667 222.733 346.502 222.733 351.233Z" fill="#E24345"/>
<path d="M257 351.233C257 355.965 253.165 359.8 248.433 359.8C243.702 359.8 239.867 355.965 239.867 351.233C239.867 346.502 243.702 342.667 248.433 342.667C253.165 342.667 257 346.502 257 351.233Z" fill="#E24345"/>
<path d="M17.1333 385.5C17.1333 390.231 13.2979 394.067 8.56667 394.067C3.83543 394.067 0 390.231 0 385.5C0 380.769 3.83543 376.933 8.56667 376.933C13.2979 376.933 17.1333 380.769 17.1333 385.5Z" fill="#E24345"/>
<path d="M51.4 385.5C51.4 390.231 47.5646 394.067 42.8333 394.067C38.1021 394.067 34.2667 390.231 34.2667 385.5C34.2667 380.769 38.1021 376.933 42.8333 376.933C47.5646 376.933 51.4 380.769 51.4 385.5Z" fill="#E24345"/>
<path d="M85.6667 385.5C85.6667 390.231 81.8312 394.067 77.1 394.067C72.3688 394.067 68.5333 390.231 68.5333 385.5C68.5333 380.769 72.3688 376.933 77.1 376.933C81.8312 376.933 85.6667 380.769 85.6667 385.5Z" fill="#E24345"/>
<path d="M119.933 385.5C119.933 390.231 116.098 394.067 111.367 394.067C106.635 394.067 102.8 390.231 102.8 385.5C102.8 380.769 106.635 376.933 111.367 376.933C116.098 376.933 119.933 380.769 119.933 385.5Z" fill="#E24345"/>
<path d="M154.2 385.5C154.2 390.231 150.365 394.067 145.633 394.067C140.902 394.067 137.067 390.231 137.067 385.5C137.067 380.769 140.902 376.933 145.633 376.933C150.365 376.933 154.2 380.769 154.2 385.5Z" fill="#E24345"/>
<path d="M188.467 385.5C188.467 390.231 184.631 394.067 179.9 394.067C175.169 394.067 171.333 390.231 171.333 385.5C171.333 380.769 175.169 376.933 179.9 376.933C184.631 376.933 188.467 380.769 188.467 385.5Z" fill="#E24345"/>
<path d="M222.733 385.5C222.733 390.231 218.898 394.067 214.167 394.067C209.435 394.067 205.6 390.231 205.6 385.5C205.6 380.769 209.435 376.933 214.167 376.933C218.898 376.933 222.733 380.769 222.733 385.5Z" fill="#E24345"/>
<path d="M257 385.5C257 390.231 253.165 394.067 248.433 394.067C243.702 394.067 239.867 390.231 239.867 385.5C239.867 380.769 243.702 376.933 248.433 376.933C253.165 376.933 257 380.769 257 385.5Z" fill="#E24345"/>
<path d="M17.1333 419.767C17.1333 424.498 13.2979 428.333 8.56667 428.333C3.83543 428.333 0 424.498 0 419.767C0 415.035 3.83543 411.2 8.56667 411.2C13.2979 411.2 17.1333 415.035 17.1333 419.767Z" fill="#E24345"/>
<path d="M51.4 419.767C51.4 424.498 47.5646 428.333 42.8333 428.333C38.1021 428.333 34.2667 424.498 34.2667 419.767C34.2667 415.035 38.1021 411.2 42.8333 411.2C47.5646 411.2 51.4 415.035 51.4 419.767Z" fill="#E24345"/>
<path d="M85.6667 419.767C85.6667 424.498 81.8312 428.333 77.1 428.333C72.3688 428.333 68.5333 424.498 68.5333 419.767C68.5333 415.035 72.3688 411.2 77.1 411.2C81.8312 411.2 85.6667 415.035 85.6667 419.767Z" fill="#E24345"/>
<path d="M119.933 419.767C119.933 424.498 116.098 428.333 111.367 428.333C106.635 428.333 102.8 424.498 102.8 419.767C102.8 415.035 106.635 411.2 111.367 411.2C116.098 411.2 119.933 415.035 119.933 419.767Z" fill="#E24345"/>
<path d="M154.2 419.767C154.2 424.498 150.365 428.333 145.633 428.333C140.902 428.333 137.067 424.498 137.067 419.767C137.067 415.035 140.902 411.2 145.633 411.2C150.365 411.2 154.2 415.035 154.2 419.767Z" fill="#E24345"/>
<path d="M188.467 419.767C188.467 424.498 184.631 428.333 179.9 428.333C175.169 428.333 171.333 424.498 171.333 419.767C171.333 415.035 175.169 411.2 179.9 411.2C184.631 411.2 188.467 415.035 188.467 419.767Z" fill="#E24345"/>
<path d="M222.733 419.767C222.733 424.498 218.898 428.333 214.167 428.333C209.435 428.333 205.6 424.498 205.6 419.767C205.6 415.035 209.435 411.2 214.167 411.2C218.898 411.2 222.733 415.035 222.733 419.767Z" fill="#E24345"/>
<path d="M257 419.767C257 424.498 253.165 428.333 248.433 428.333C243.702 428.333 239.867 424.498 239.867 419.767C239.867 415.035 243.702 411.2 248.433 411.2C253.165 411.2 257 415.035 257 419.767Z" fill="#E24345"/>
</g>
</svg>
