<svg width="514" height="384" viewBox="0 0 514 384" fill="none" xmlns="http://www.w3.org/2000/svg">
<g opacity="0.1">
<path d="M11.7084 250.304C16.6378 251.625 19.5631 256.692 18.2423 261.621C16.9215 266.551 11.8546 269.476 6.92526 268.155C1.99586 266.834 -0.929459 261.768 0.391368 256.838C1.7122 251.909 6.779 248.984 11.7084 250.304Z" fill="#E24345"/>
<path d="M21.2744 214.603C26.2038 215.923 29.1291 220.99 27.8083 225.92C26.4875 230.849 21.4207 233.774 16.4913 232.453C11.5619 231.133 8.63657 226.066 9.9574 221.136C11.2782 216.207 16.345 213.282 21.2744 214.603Z" fill="#E24345"/>
<path d="M30.8407 178.901C35.7701 180.222 38.6954 185.288 37.3746 190.218C36.0538 195.147 30.987 198.073 26.0576 196.752C21.1282 195.431 18.2029 190.364 19.5237 185.435C20.8445 180.505 25.9113 177.58 30.8407 178.901Z" fill="#E24345"/>
<path d="M40.407 143.199C45.3364 144.52 48.2617 149.587 46.9409 154.516C45.6201 159.445 40.5533 162.371 35.6239 161.05C30.6945 159.729 27.7692 154.662 29.09 149.733C30.4108 144.803 35.4776 141.878 40.407 143.199Z" fill="#E24345"/>
<path d="M49.9733 107.497C54.9027 108.818 57.828 113.885 56.5072 118.814C55.1864 123.744 50.1196 126.669 45.1902 125.348C40.2608 124.027 37.3355 118.96 38.6563 114.031C39.9771 109.102 45.0439 106.176 49.9733 107.497Z" fill="#E24345"/>
<path d="M59.5396 71.7954C64.469 73.1162 67.3943 78.183 66.0735 83.1124C64.7527 88.0418 59.6859 90.9671 54.7565 89.6463C49.8271 88.3255 46.9018 83.2586 48.2226 78.3293C49.5434 73.3999 54.6102 70.4745 59.5396 71.7954Z" fill="#E24345"/>
<path d="M69.1059 36.0935C74.0353 37.4143 76.9606 42.4811 75.6398 47.4105C74.319 52.3399 69.2522 55.2652 64.3228 53.9444C59.3934 52.6236 56.4681 47.5568 57.7889 42.6274C59.1097 37.698 64.1765 34.7727 69.1059 36.0935Z" fill="#E24345"/>
<path d="M78.6722 0.391612C83.6016 1.71244 86.5269 6.77924 85.2061 11.7086C83.8853 16.638 78.8185 19.5634 73.8891 18.2425C68.9597 16.9217 66.0343 11.8549 67.3552 6.9255C68.676 1.99611 73.7428 -0.929215 78.6722 0.391612Z" fill="#E24345"/>
<path d="M47.4102 259.871C52.3396 261.191 55.2649 266.258 53.9441 271.188C52.6233 276.117 47.5565 279.042 42.6271 277.722C37.6977 276.401 34.7724 271.334 36.0932 266.405C37.414 261.475 42.4808 258.55 47.4102 259.871Z" fill="#E24345"/>
<path d="M56.9764 224.169C61.9058 225.49 64.8311 230.556 63.5103 235.486C62.1894 240.415 57.1226 243.341 52.1933 242.02C47.2639 240.699 44.3385 235.632 45.6594 230.703C46.9802 225.773 52.047 222.848 56.9764 224.169Z" fill="#E24345"/>
<path d="M66.5427 188.467C71.4721 189.788 74.3974 194.855 73.0766 199.784C71.7557 204.713 66.6889 207.639 61.7595 206.318C56.8302 204.997 53.9048 199.93 55.2257 195.001C56.5465 190.072 61.6133 187.146 66.5427 188.467Z" fill="#E24345"/>
<path d="M76.109 152.765C81.0384 154.086 83.9637 159.153 82.6429 164.082C81.322 169.012 76.2552 171.937 71.3258 170.616C66.3965 169.295 63.4711 164.228 64.792 159.299C66.1128 154.37 71.1796 151.444 76.109 152.765Z" fill="#E24345"/>
<path d="M85.6753 117.063C90.6047 118.384 93.53 123.451 92.2092 128.38C90.8883 133.31 85.8215 136.235 80.8921 134.914C75.9627 133.593 73.0374 128.527 74.3583 123.597C75.6791 118.668 80.7459 115.743 85.6753 117.063Z" fill="#E24345"/>
<path d="M95.2416 81.3616C100.171 82.6824 103.096 87.7492 101.775 92.6786C100.455 97.608 95.3878 100.533 90.4584 99.2125C85.529 97.8917 82.6037 92.8249 83.9245 87.8955C85.2454 82.9661 90.3122 80.0408 95.2416 81.3616Z" fill="#E24345"/>
<path d="M104.808 45.6597C109.737 46.9805 112.663 52.0474 111.342 56.9767C110.021 61.9061 104.954 64.8315 100.025 63.5106C95.0953 62.1898 92.17 57.123 93.4908 52.1936C94.8117 47.2642 99.8785 44.3389 104.808 45.6597Z" fill="#E24345"/>
<path d="M114.374 9.95783C119.304 11.2787 122.229 16.3455 120.908 21.2749C119.587 26.2042 114.52 29.1296 109.591 27.8087C104.662 26.4879 101.736 21.4211 103.057 16.4917C104.378 11.5623 109.445 8.63701 114.374 9.95783Z" fill="#E24345"/>
<path d="M83.1119 269.437C88.0413 270.758 90.9666 275.825 89.6458 280.754C88.3249 285.683 83.2581 288.609 78.3287 287.288C73.3993 285.967 70.474 280.9 71.7949 275.971C73.1157 271.042 78.1825 268.116 83.1119 269.437Z" fill="#E24345"/>
<path d="M92.6783 233.735C97.6077 235.056 100.533 240.123 99.2122 245.052C97.8914 249.982 92.8246 252.907 87.8952 251.586C82.9658 250.265 80.0405 245.198 81.3613 240.269C82.6821 235.34 87.7489 232.414 92.6783 233.735Z" fill="#E24345"/>
<path d="M102.245 198.033C107.174 199.354 110.099 204.421 108.779 209.35C107.458 214.28 102.391 217.205 97.4615 215.884C92.5321 214.564 89.6068 209.497 90.9276 204.567C92.2484 199.638 97.3152 196.713 102.245 198.033Z" fill="#E24345"/>
<path d="M111.811 162.332C116.74 163.652 119.666 168.719 118.345 173.649C117.024 178.578 111.957 181.503 107.028 180.182C102.098 178.862 99.1731 173.795 100.494 168.865C101.815 163.936 106.882 161.011 111.811 162.332Z" fill="#E24345"/>
<path d="M121.377 126.63C126.307 127.951 129.232 133.017 127.911 137.947C126.59 142.876 121.523 145.801 116.594 144.481C111.665 143.16 108.739 138.093 110.06 133.164C111.381 128.234 116.448 125.309 121.377 126.63Z" fill="#E24345"/>
<path d="M130.943 90.9279C135.873 92.2488 138.798 97.3156 137.477 102.245C136.156 107.174 131.09 110.1 126.16 108.779C121.231 107.458 118.305 102.391 119.626 97.4618C120.947 92.5324 126.014 89.6071 130.943 90.9279Z" fill="#E24345"/>
<path d="M140.51 55.2261C145.439 56.5469 148.364 61.6137 147.043 66.5431C145.723 71.4725 140.656 74.3978 135.726 73.077C130.797 71.7562 127.872 66.6894 129.193 61.76C130.513 56.8306 135.58 53.9053 140.51 55.2261Z" fill="#E24345"/>
<path d="M150.076 19.5243C155.005 20.8451 157.931 25.9119 156.61 30.8413C155.289 35.7707 150.222 38.696 145.293 37.3752C140.363 36.0544 137.438 30.9876 138.759 26.0582C140.08 21.1288 145.146 18.2035 150.076 19.5243Z" fill="#E24345"/>
<path d="M118.814 279.003C123.743 280.324 126.669 285.391 125.348 290.32C124.027 295.25 118.96 298.175 114.031 296.854C109.101 295.533 106.176 290.467 107.497 285.537C108.818 280.608 113.884 277.682 118.814 279.003Z" fill="#E24345"/>
<path d="M128.38 243.301C133.309 244.622 136.235 249.689 134.914 254.618C133.593 259.548 128.526 262.473 123.597 261.152C118.667 259.831 115.742 254.765 117.063 249.835C118.384 244.906 123.451 241.981 128.38 243.301Z" fill="#E24345"/>
<path d="M137.946 207.6C142.876 208.92 145.801 213.987 144.48 218.917C143.159 223.846 138.093 226.771 133.163 225.451C128.234 224.13 125.308 219.063 126.629 214.134C127.95 209.204 133.017 206.279 137.946 207.6Z" fill="#E24345"/>
<path d="M147.513 171.898C152.442 173.219 155.367 178.285 154.046 183.215C152.726 188.144 147.659 191.07 142.729 189.749C137.8 188.428 134.875 183.361 136.196 178.432C137.516 173.502 142.583 170.577 147.513 171.898Z" fill="#E24345"/>
<path d="M157.079 136.196C162.008 137.517 164.934 142.584 163.613 147.513C162.292 152.442 157.225 155.368 152.296 154.047C147.366 152.726 144.441 147.659 145.762 142.73C147.083 137.8 152.149 134.875 157.079 136.196Z" fill="#E24345"/>
<path d="M166.645 100.494C171.575 101.815 174.5 106.882 173.179 111.811C171.858 116.741 166.791 119.666 161.862 118.345C156.933 117.024 154.007 111.957 155.328 107.028C156.649 102.099 161.716 99.1733 166.645 100.494Z" fill="#E24345"/>
<path d="M176.211 64.7923C181.141 66.1131 184.066 71.1799 182.745 76.1093C181.425 81.0387 176.358 83.964 171.428 82.6432C166.499 81.3224 163.574 76.2556 164.894 71.3262C166.215 66.3968 171.282 63.4715 176.211 64.7923Z" fill="#E24345"/>
<path d="M185.778 29.0904C190.707 30.4113 193.632 35.4781 192.312 40.4075C190.991 45.3368 185.924 48.2622 180.995 46.9413C176.065 45.6205 173.14 40.5537 174.461 35.6243C175.782 30.6949 180.848 27.7696 185.778 29.0904Z" fill="#E24345"/>
<path d="M154.516 288.569C159.445 289.89 162.37 294.957 161.05 299.887C159.729 304.816 154.662 307.741 149.732 306.42C144.803 305.1 141.878 300.033 143.199 295.103C144.519 290.174 149.586 287.249 154.516 288.569Z" fill="#E24345"/>
<path d="M164.082 252.868C169.011 254.188 171.937 259.255 170.616 264.185C169.295 269.114 164.228 272.039 159.299 270.719C154.37 269.398 151.444 264.331 152.765 259.402C154.086 254.472 159.153 251.547 164.082 252.868Z" fill="#E24345"/>
<path d="M173.648 217.166C178.578 218.487 181.503 223.554 180.182 228.483C178.861 233.412 173.795 236.338 168.865 235.017C163.936 233.696 161.01 228.629 162.331 223.7C163.652 218.77 168.719 215.845 173.648 217.166Z" fill="#E24345"/>
<path d="M183.215 181.464C188.144 182.785 191.069 187.852 189.749 192.781C188.428 197.71 183.361 200.636 178.431 199.315C173.502 197.994 170.577 192.927 171.898 187.998C173.218 183.069 178.285 180.143 183.215 181.464Z" fill="#E24345"/>
<path d="M192.781 145.762C197.71 147.083 200.636 152.15 199.315 157.079C197.994 162.009 192.927 164.934 187.998 163.613C183.068 162.292 180.143 157.225 181.464 152.296C182.785 147.367 187.852 144.441 192.781 145.762Z" fill="#E24345"/>
<path d="M202.347 110.06C207.277 111.381 210.202 116.448 208.881 121.377C207.56 126.307 202.493 129.232 197.564 127.911C192.635 126.591 189.709 121.524 191.03 116.594C192.351 111.665 197.418 108.74 202.347 110.06Z" fill="#E24345"/>
<path d="M211.914 74.3586C216.843 75.6794 219.768 80.7462 218.447 85.6756C217.127 90.605 212.06 93.5303 207.13 92.2095C202.201 90.8886 199.276 85.8218 200.596 80.8924C201.917 75.963 206.984 73.0377 211.914 74.3586Z" fill="#E24345"/>
<path d="M221.48 38.6567C226.409 39.9775 229.335 45.0443 228.014 49.9737C226.693 54.9031 221.626 57.8284 216.697 56.5076C211.767 55.1868 208.842 50.12 210.163 45.1906C211.484 40.2612 216.55 37.3359 221.48 38.6567Z" fill="#E24345"/>
<path d="M190.218 298.136C195.147 299.457 198.072 304.523 196.751 309.453C195.431 314.382 190.364 317.308 185.434 315.987C180.505 314.666 177.58 309.599 178.9 304.67C180.221 299.74 185.288 296.815 190.218 298.136Z" fill="#E24345"/>
<path d="M199.784 262.434C204.713 263.755 207.638 268.822 206.317 273.751C204.997 278.68 199.93 281.606 195 280.285C190.071 278.964 187.146 273.897 188.467 268.968C189.787 264.038 194.854 261.113 199.784 262.434Z" fill="#E24345"/>
<path d="M209.35 226.732C214.279 228.053 217.205 233.12 215.884 238.049C214.563 242.979 209.496 245.904 204.567 244.583C199.637 243.262 196.712 238.195 198.033 233.266C199.354 228.337 204.42 225.411 209.35 226.732Z" fill="#E24345"/>
<path d="M218.916 191.03C223.846 192.351 226.771 197.418 225.45 202.347C224.129 207.277 219.062 210.202 214.133 208.881C209.204 207.56 206.278 202.494 207.599 197.564C208.92 192.635 213.987 189.71 218.916 191.03Z" fill="#E24345"/>
<path d="M228.482 155.328C233.412 156.649 236.337 161.716 235.016 166.645C233.696 171.575 228.629 174.5 223.699 173.179C218.77 171.859 215.845 166.792 217.165 161.862C218.486 156.933 223.553 154.008 228.482 155.328Z" fill="#E24345"/>
<path d="M238.049 119.627C242.978 120.948 245.903 126.014 244.583 130.944C243.262 135.873 238.195 138.798 233.266 137.478C228.336 136.157 225.411 131.09 226.732 126.161C228.053 121.231 233.119 118.306 238.049 119.627Z" fill="#E24345"/>
<path d="M247.615 83.9248C252.544 85.2457 255.47 90.3125 254.149 95.2419C252.828 100.171 247.761 103.097 242.832 101.776C237.903 100.455 234.977 95.3881 236.298 90.4587C237.619 85.5293 242.686 82.604 247.615 83.9248Z" fill="#E24345"/>
<path d="M257.181 48.223C262.111 49.5438 265.036 54.6106 263.715 59.54C262.394 64.4694 257.328 67.3947 252.398 66.0739C247.469 64.7531 244.543 59.6862 245.864 54.7569C247.185 49.8275 252.252 46.9021 257.181 48.223Z" fill="#E24345"/>
<path d="M225.919 307.702C230.849 309.023 233.774 314.09 232.453 319.019C231.132 323.948 226.066 326.874 221.136 325.553C216.207 324.232 213.282 319.165 214.602 314.236C215.923 309.307 220.99 306.381 225.919 307.702Z" fill="#E24345"/>
<path d="M235.486 272C240.415 273.321 243.34 278.388 242.02 283.317C240.699 288.247 235.632 291.172 230.703 289.851C225.773 288.53 222.848 283.463 224.169 278.534C225.49 273.605 230.556 270.679 235.486 272Z" fill="#E24345"/>
<path d="M245.052 236.298C249.981 237.619 252.907 242.686 251.586 247.615C250.265 252.545 245.198 255.47 240.269 254.149C235.339 252.829 232.414 247.762 233.735 242.832C235.056 237.903 240.123 234.978 245.052 236.298Z" fill="#E24345"/>
<path d="M254.618 200.597C259.548 201.917 262.473 206.984 261.152 211.914C259.831 216.843 254.765 219.768 249.835 218.447C244.906 217.127 241.98 212.06 243.301 207.13C244.622 202.201 249.689 199.276 254.618 200.597Z" fill="#E24345"/>
<path d="M264.185 164.895C269.114 166.216 272.039 171.282 270.719 176.212C269.398 181.141 264.331 184.066 259.401 182.746C254.472 181.425 251.547 176.358 252.868 171.429C254.188 166.499 259.255 163.574 264.185 164.895Z" fill="#E24345"/>
<path d="M273.751 129.193C278.68 130.514 281.606 135.581 280.285 140.51C278.964 145.439 273.897 148.365 268.968 147.044C264.038 145.723 261.113 140.656 262.434 135.727C263.755 130.797 268.821 127.872 273.751 129.193Z" fill="#E24345"/>
<path d="M283.317 93.4911C288.247 94.8119 291.172 99.8787 289.851 104.808C288.53 109.738 283.463 112.663 278.534 111.342C273.605 110.021 270.679 104.954 272 100.025C273.321 95.0956 278.388 92.1703 283.317 93.4911Z" fill="#E24345"/>
<path d="M292.883 57.7892C297.813 59.11 300.738 64.1769 299.417 69.1062C298.097 74.0356 293.03 76.961 288.1 75.6401C283.171 74.3193 280.246 69.2525 281.566 64.3231C282.887 59.3937 287.954 56.4684 292.883 57.7892Z" fill="#E24345"/>
<path d="M261.621 317.268C266.551 318.589 269.476 323.656 268.155 328.585C266.834 333.515 261.767 336.44 256.838 335.119C251.909 333.798 248.983 328.732 250.304 323.802C251.625 318.873 256.692 315.948 261.621 317.268Z" fill="#E24345"/>
<path d="M271.188 281.566C276.117 282.887 279.042 287.954 277.722 292.883C276.401 297.813 271.334 300.738 266.405 299.417C261.475 298.097 258.55 293.03 259.871 288.1C261.191 283.171 266.258 280.246 271.188 281.566Z" fill="#E24345"/>
<path d="M280.754 245.865C285.683 247.186 288.609 252.252 287.288 257.182C285.967 262.111 280.9 265.036 275.971 263.716C271.041 262.395 268.116 257.328 269.437 252.399C270.758 247.469 275.825 244.544 280.754 245.865Z" fill="#E24345"/>
<path d="M290.32 210.163C295.25 211.484 298.175 216.55 296.854 221.48C295.533 226.409 290.466 229.335 285.537 228.014C280.608 226.693 277.682 221.626 279.003 216.697C280.324 211.767 285.391 208.842 290.32 210.163Z" fill="#E24345"/>
<path d="M299.887 174.461C304.816 175.782 307.741 180.849 306.42 185.778C305.1 190.707 300.033 193.633 295.103 192.312C290.174 190.991 287.249 185.924 288.569 180.995C289.89 176.065 294.957 173.14 299.887 174.461Z" fill="#E24345"/>
<path d="M309.453 138.759C314.382 140.08 317.307 145.147 315.986 150.076C314.666 155.006 309.599 157.931 304.669 156.61C299.74 155.289 296.815 150.222 298.135 145.293C299.456 140.364 304.523 137.438 309.453 138.759Z" fill="#E24345"/>
<path d="M319.019 103.057C323.948 104.378 326.874 109.445 325.553 114.374C324.232 119.304 319.165 122.229 314.236 120.908C309.306 119.587 306.381 114.521 307.702 109.591C309.023 104.662 314.089 101.737 319.019 103.057Z" fill="#E24345"/>
<path d="M328.585 67.3556C333.514 68.6764 336.44 73.7432 335.119 78.6726C333.798 83.602 328.731 86.5273 323.802 85.2065C318.873 83.8857 315.947 78.8189 317.268 73.8895C318.589 68.9601 323.656 66.0347 328.585 67.3556Z" fill="#E24345"/>
<path d="M297.323 326.835C302.253 328.156 305.178 333.222 303.857 338.152C302.536 343.081 297.469 346.006 292.54 344.686C287.611 343.365 284.685 338.298 286.006 333.369C287.327 328.439 292.394 325.514 297.323 326.835Z" fill="#E24345"/>
<path d="M306.889 291.133C311.819 292.454 314.744 297.52 313.423 302.45C312.102 307.379 307.036 310.305 302.106 308.984C297.177 307.663 294.252 302.596 295.572 297.667C296.893 292.737 301.96 289.812 306.889 291.133Z" fill="#E24345"/>
<path d="M316.456 255.431C321.385 256.752 324.31 261.819 322.99 266.748C321.669 271.678 316.602 274.603 311.673 273.282C306.743 271.961 303.818 266.894 305.139 261.965C306.46 257.036 311.526 254.11 316.456 255.431Z" fill="#E24345"/>
<path d="M326.022 219.729C330.951 221.05 333.877 226.117 332.556 231.046C331.235 235.976 326.168 238.901 321.239 237.58C316.309 236.259 313.384 231.192 314.705 226.263C316.026 221.334 321.093 218.408 326.022 219.729Z" fill="#E24345"/>
<path d="M335.588 184.027C340.518 185.348 343.443 190.415 342.122 195.344C340.801 200.274 335.735 203.199 330.805 201.878C325.876 200.557 322.95 195.491 324.271 190.561C325.592 185.632 330.659 182.707 335.588 184.027Z" fill="#E24345"/>
<path d="M345.155 148.326C350.084 149.646 353.009 154.713 351.688 159.643C350.368 164.572 345.301 167.497 340.371 166.177C335.442 164.856 332.517 159.789 333.838 154.859C335.158 149.93 340.225 147.005 345.155 148.326Z" fill="#E24345"/>
<path d="M354.721 112.624C359.65 113.945 362.576 119.011 361.255 123.941C359.934 128.87 354.867 131.795 349.938 130.475C345.008 129.154 342.083 124.087 343.404 119.158C344.725 114.228 349.791 111.303 354.721 112.624Z" fill="#E24345"/>
<path d="M364.287 76.9218C369.217 78.2427 372.142 83.3095 370.821 88.2389C369.5 93.1683 364.433 96.0936 359.504 94.7727C354.575 93.4519 351.649 88.3851 352.97 83.4557C354.291 78.5263 359.358 75.601 364.287 76.9218Z" fill="#E24345"/>
<path d="M333.025 336.401C337.954 337.722 340.88 342.789 339.559 347.718C338.238 352.647 333.171 355.573 328.242 354.252C323.312 352.931 320.387 347.864 321.708 342.935C323.029 338.005 328.095 335.08 333.025 336.401Z" fill="#E24345"/>
<path d="M342.591 300.699C347.521 302.02 350.446 307.087 349.125 312.016C347.804 316.945 342.737 319.871 337.808 318.55C332.879 317.229 329.953 312.162 331.274 307.233C332.595 302.304 337.662 299.378 342.591 300.699Z" fill="#E24345"/>
<path d="M352.158 264.997C357.087 266.318 360.012 271.385 358.691 276.314C357.371 281.244 352.304 284.169 347.374 282.848C342.445 281.527 339.52 276.461 340.84 271.531C342.161 266.602 347.228 263.676 352.158 264.997Z" fill="#E24345"/>
<path d="M361.724 229.295C366.653 230.616 369.579 235.683 368.258 240.612C366.937 245.542 361.87 248.467 356.941 247.146C352.011 245.826 349.086 240.759 350.407 235.829C351.728 230.9 356.794 227.975 361.724 229.295Z" fill="#E24345"/>
<path d="M371.29 193.594C376.219 194.914 379.145 199.981 377.824 204.911C376.503 209.84 371.436 212.765 366.507 211.444C361.578 210.124 358.652 205.057 359.973 200.127C361.294 195.198 366.361 192.273 371.29 193.594Z" fill="#E24345"/>
<path d="M380.856 157.892C385.786 159.213 388.711 164.279 387.39 169.209C386.069 174.138 381.003 177.064 376.073 175.743C371.144 174.422 368.219 169.355 369.539 164.426C370.86 159.496 375.927 156.571 380.856 157.892Z" fill="#E24345"/>
<path d="M390.423 122.19C395.352 123.511 398.277 128.578 396.957 133.507C395.636 138.436 390.569 141.362 385.64 140.041C380.71 138.72 377.785 133.653 379.106 128.724C380.426 123.794 385.493 120.869 390.423 122.19Z" fill="#E24345"/>
<path d="M399.989 86.4881C404.918 87.8089 407.844 92.8757 406.523 97.8051C405.202 102.734 400.135 105.66 395.206 104.339C390.276 103.018 387.351 97.9514 388.672 93.022C389.993 88.0926 395.06 85.1672 399.989 86.4881Z" fill="#E24345"/>
<path d="M368.727 345.967C373.656 347.288 376.581 352.355 375.26 357.284C373.94 362.214 368.873 365.139 363.943 363.818C359.014 362.497 356.089 357.43 357.41 352.501C358.73 347.572 363.797 344.646 368.727 345.967Z" fill="#E24345"/>
<path d="M378.293 310.265C383.222 311.586 386.148 316.653 384.827 321.582C383.506 326.512 378.439 329.437 373.51 328.116C368.58 326.795 365.655 321.729 366.976 316.799C368.297 311.87 373.363 308.944 378.293 310.265Z" fill="#E24345"/>
<path d="M387.859 274.564C392.789 275.884 395.714 280.951 394.393 285.881C393.072 290.81 388.005 293.735 383.076 292.414C378.147 291.094 375.221 286.027 376.542 281.097C377.863 276.168 382.93 273.243 387.859 274.564Z" fill="#E24345"/>
<path d="M397.425 238.862C402.355 240.183 405.28 245.249 403.959 250.179C402.638 255.108 397.572 258.033 392.642 256.713C387.713 255.392 384.788 250.325 386.108 245.396C387.429 240.466 392.496 237.541 397.425 238.862Z" fill="#E24345"/>
<path d="M406.992 203.16C411.921 204.481 414.846 209.547 413.526 214.477C412.205 219.406 407.138 222.332 402.209 221.011C397.279 219.69 394.354 214.623 395.675 209.694C396.996 204.764 402.062 201.839 406.992 203.16Z" fill="#E24345"/>
<path d="M416.558 167.458C421.487 168.779 424.413 173.846 423.092 178.775C421.771 183.705 416.704 186.63 411.775 185.309C406.845 183.988 403.92 178.921 405.241 173.992C406.562 169.063 411.629 166.137 416.558 167.458Z" fill="#E24345"/>
<path d="M426.124 131.756C431.054 133.077 433.979 138.144 432.658 143.073C431.337 148.003 426.271 150.928 421.341 149.607C416.412 148.286 413.486 143.219 414.807 138.29C416.128 133.361 421.195 130.435 426.124 131.756Z" fill="#E24345"/>
<path d="M435.691 96.0544C440.62 97.3752 443.545 102.442 442.224 107.371C440.904 112.301 435.837 115.226 430.907 113.905C425.978 112.584 423.053 107.518 424.374 102.588C425.694 97.6588 430.761 94.7335 435.691 96.0544Z" fill="#E24345"/>
<path d="M404.428 355.534C409.358 356.854 412.283 361.921 410.962 366.851C409.641 371.78 404.574 374.705 399.645 373.384C394.716 372.064 391.79 366.997 393.111 362.067C394.432 357.138 399.499 354.213 404.428 355.534Z" fill="#E24345"/>
<path d="M413.995 319.832C418.924 321.152 421.849 326.219 420.528 331.149C419.208 336.078 414.141 339.003 409.211 337.683C404.282 336.362 401.357 331.295 402.678 326.366C403.998 321.436 409.065 318.511 413.995 319.832Z" fill="#E24345"/>
<path d="M423.561 284.13C428.49 285.451 431.416 290.518 430.095 295.447C428.774 300.376 423.707 303.302 418.778 301.981C413.848 300.66 410.923 295.593 412.244 290.664C413.565 285.734 418.631 282.809 423.561 284.13Z" fill="#E24345"/>
<path d="M433.127 248.428C438.057 249.749 440.982 254.816 439.661 259.745C438.34 264.674 433.273 267.6 428.344 266.279C423.415 264.958 420.489 259.891 421.81 254.962C423.131 250.033 428.198 247.107 433.127 248.428Z" fill="#E24345"/>
<path d="M442.693 212.726C447.623 214.047 450.548 219.114 449.227 224.043C447.906 228.973 442.84 231.898 437.91 230.577C432.981 229.256 430.056 224.189 431.376 219.26C432.697 214.331 437.764 211.405 442.693 212.726Z" fill="#E24345"/>
<path d="M452.26 177.024C457.189 178.345 460.114 183.412 458.794 188.341C457.473 193.271 452.406 196.196 447.477 194.875C442.547 193.555 439.622 188.488 440.943 183.558C442.264 178.629 447.33 175.704 452.26 177.024Z" fill="#E24345"/>
<path d="M461.826 141.323C466.755 142.643 469.681 147.71 468.36 152.64C467.039 157.569 461.972 160.494 457.043 159.173C452.114 157.853 449.188 152.786 450.509 147.856C451.83 142.927 456.897 140.002 461.826 141.323Z" fill="#E24345"/>
<path d="M471.392 105.621C476.322 106.942 479.247 112.008 477.926 116.938C476.605 121.867 471.539 124.792 466.609 123.472C461.68 122.151 458.754 117.084 460.075 112.155C461.396 107.225 466.463 104.3 471.392 105.621Z" fill="#E24345"/>
<path d="M440.13 365.1C445.06 366.421 447.985 371.487 446.664 376.417C445.343 381.346 440.277 384.271 435.347 382.951C430.418 381.63 427.492 376.563 428.813 371.634C430.134 366.704 435.201 363.779 440.13 365.1Z" fill="#E24345"/>
<path d="M449.697 329.398C454.626 330.719 457.551 335.785 456.231 340.715C454.91 345.644 449.843 348.57 444.914 347.249C439.984 345.928 437.059 340.861 438.38 335.932C439.701 331.002 444.767 328.077 449.697 329.398Z" fill="#E24345"/>
<path d="M459.263 293.696C464.192 295.017 467.118 300.084 465.797 305.013C464.476 309.942 459.409 312.868 454.48 311.547C449.55 310.226 446.625 305.159 447.946 300.23C449.267 295.301 454.334 292.375 459.263 293.696Z" fill="#E24345"/>
<path d="M468.829 257.994C473.758 259.315 476.684 264.382 475.363 269.311C474.042 274.241 468.975 277.166 464.046 275.845C459.117 274.524 456.191 269.457 457.512 264.528C458.833 259.599 463.9 256.673 468.829 257.994Z" fill="#E24345"/>
<path d="M478.395 222.292C483.325 223.613 486.25 228.68 484.929 233.609C483.608 238.539 478.542 241.464 473.612 240.143C468.683 238.822 465.758 233.756 467.078 228.826C468.399 223.897 473.466 220.972 478.395 222.292Z" fill="#E24345"/>
<path d="M487.962 186.591C492.891 187.911 495.816 192.978 494.496 197.908C493.175 202.837 488.108 205.762 483.178 204.441C478.249 203.121 475.324 198.054 476.645 193.124C477.965 188.195 483.032 185.27 487.962 186.591Z" fill="#E24345"/>
<path d="M497.528 150.889C502.457 152.21 505.383 157.276 504.062 162.206C502.741 167.135 497.674 170.061 492.745 168.74C487.815 167.419 484.89 162.352 486.211 157.423C487.532 152.493 492.598 149.568 497.528 150.889Z" fill="#E24345"/>
<path d="M507.094 115.187C512.024 116.508 514.949 121.575 513.628 126.504C512.307 131.433 507.24 134.359 502.311 133.038C497.382 131.717 494.456 126.65 495.777 121.721C497.098 116.791 502.165 113.866 507.094 115.187Z" fill="#E24345"/>
</g>
</svg>
