<svg width="426" height="488" viewBox="0 0 426 488" fill="none" xmlns="http://www.w3.org/2000/svg">
<g opacity="0.1">
<path d="M218.923 12.7866C216.587 16.833 211.413 18.2194 207.367 15.8832C203.32 13.547 201.934 8.37298 204.27 4.32663C206.606 0.280272 211.78 -1.10611 215.827 1.23005C219.873 3.56622 221.259 8.74027 218.923 12.7866Z" fill="#E24345"/>
<path d="M248.229 29.7066C245.893 33.753 240.719 35.1394 236.673 32.8032C232.627 30.467 231.24 25.293 233.576 21.2466C235.913 17.2003 241.087 15.8139 245.133 18.1501C249.179 20.4862 250.566 25.6603 248.229 29.7066Z" fill="#E24345"/>
<path d="M277.536 46.6266C275.2 50.673 270.026 52.0594 265.979 49.7232C261.933 47.387 260.546 42.213 262.883 38.1666C265.219 34.1203 270.393 32.7339 274.439 35.0701C278.486 37.4062 279.872 42.5803 277.536 46.6266Z" fill="#E24345"/>
<path d="M306.842 63.5466C304.506 67.593 299.332 68.9794 295.286 66.6432C291.239 64.307 289.853 59.133 292.189 55.0866C294.525 51.0403 299.699 49.6539 303.746 51.9901C307.792 54.3262 309.178 59.5003 306.842 63.5466Z" fill="#E24345"/>
<path d="M336.148 80.4666C333.812 84.513 328.638 85.8994 324.592 83.5632C320.545 81.227 319.159 76.053 321.495 72.0066C323.831 67.9603 329.005 66.5739 333.052 68.91C337.098 71.2462 338.485 76.4203 336.148 80.4666Z" fill="#E24345"/>
<path d="M365.455 97.3866C363.119 101.433 357.944 102.819 353.898 100.483C349.852 98.147 348.465 92.973 350.802 88.9266C353.138 84.8803 358.312 83.4939 362.358 85.83C366.404 88.1662 367.791 93.3403 365.455 97.3866Z" fill="#E24345"/>
<path d="M394.761 114.307C392.425 118.353 387.251 119.739 383.204 117.403C379.158 115.067 377.772 109.893 380.108 105.847C382.444 101.8 387.618 100.414 391.664 102.75C395.711 105.086 397.097 110.26 394.761 114.307Z" fill="#E24345"/>
<path d="M424.067 131.227C421.731 135.273 416.557 136.659 412.511 134.323C408.464 131.987 407.078 126.813 409.414 122.767C411.75 118.72 416.924 117.334 420.971 119.67C425.017 122.006 426.403 127.18 424.067 131.227Z" fill="#E24345"/>
<path d="M202.003 42.0929C199.667 46.1393 194.493 47.5257 190.447 45.1895C186.4 42.8533 185.014 37.6793 187.35 33.6329C189.686 29.5866 194.86 28.2002 198.907 30.5364C202.953 32.8725 204.339 38.0466 202.003 42.0929Z" fill="#E24345"/>
<path d="M231.309 59.013C228.973 63.0593 223.799 64.4457 219.753 62.1095C215.707 59.7734 214.32 54.5993 216.656 50.553C218.992 46.5066 224.167 45.1202 228.213 47.4564C232.259 49.7925 233.646 54.9666 231.309 59.013Z" fill="#E24345"/>
<path d="M260.616 75.933C258.28 79.9793 253.106 81.3657 249.059 79.0295C245.013 76.6934 243.626 71.5193 245.963 67.473C248.299 63.4266 253.473 62.0402 257.519 64.3764C261.566 66.7125 262.952 71.8866 260.616 75.933Z" fill="#E24345"/>
<path d="M289.922 92.853C287.586 96.8993 282.412 98.2857 278.366 95.9495C274.319 93.6134 272.933 88.4393 275.269 84.393C277.605 80.3466 282.779 78.9602 286.826 81.2964C290.872 83.6325 292.258 88.8066 289.922 92.853Z" fill="#E24345"/>
<path d="M319.228 109.773C316.892 113.819 311.718 115.206 307.672 112.87C303.625 110.533 302.239 105.359 304.575 101.313C306.911 97.2666 312.085 95.8802 316.132 98.2164C320.178 100.553 321.565 105.727 319.228 109.773Z" fill="#E24345"/>
<path d="M348.535 126.693C346.199 130.739 341.024 132.126 336.978 129.79C332.932 127.453 331.545 122.279 333.882 118.233C336.218 114.187 341.392 112.8 345.438 115.136C349.484 117.473 350.871 122.647 348.535 126.693Z" fill="#E24345"/>
<path d="M377.841 143.613C375.505 147.659 370.331 149.046 366.284 146.71C362.238 144.373 360.852 139.199 363.188 135.153C365.524 131.107 370.698 129.72 374.744 132.056C378.791 134.393 380.177 139.567 377.841 143.613Z" fill="#E24345"/>
<path d="M407.147 160.533C404.811 164.579 399.637 165.966 395.591 163.63C391.544 161.293 390.158 156.119 392.494 152.073C394.83 148.027 400.004 146.64 404.051 148.976C408.097 151.313 409.483 156.487 407.147 160.533Z" fill="#E24345"/>
<path d="M185.083 71.3992C182.747 75.4456 177.573 76.832 173.527 74.4958C169.48 72.1596 168.094 66.9856 170.43 62.9392C172.766 58.8929 177.94 57.5065 181.987 59.8427C186.033 62.1788 187.419 67.3529 185.083 71.3992Z" fill="#E24345"/>
<path d="M214.39 88.3192C212.053 92.3655 206.879 93.7519 202.833 91.4158C198.787 89.0796 197.4 83.9055 199.736 79.8592C202.073 75.8128 207.247 74.4264 211.293 76.7626C215.339 79.0988 216.726 84.2728 214.39 88.3192Z" fill="#E24345"/>
<path d="M243.696 105.239C241.36 109.286 236.186 110.672 232.139 108.336C228.093 106 226.706 100.826 229.043 96.7792C231.379 92.7328 236.553 91.3464 240.599 93.6826C244.646 96.0188 246.032 101.193 243.696 105.239Z" fill="#E24345"/>
<path d="M273.002 122.159C270.666 126.206 265.492 127.592 261.446 125.256C257.399 122.92 256.013 117.746 258.349 113.699C260.685 109.653 265.859 108.266 269.906 110.603C273.952 112.939 275.338 118.113 273.002 122.159Z" fill="#E24345"/>
<path d="M302.308 139.079C299.972 143.126 294.798 144.512 290.752 142.176C286.705 139.84 285.319 134.666 287.655 130.619C289.991 126.573 295.165 125.186 299.212 127.523C303.258 129.859 304.645 135.033 302.308 139.079Z" fill="#E24345"/>
<path d="M331.615 155.999C329.279 160.046 324.104 161.432 320.058 159.096C316.012 156.76 314.625 151.586 316.962 147.539C319.298 143.493 324.472 142.106 328.518 144.443C332.564 146.779 333.951 151.953 331.615 155.999Z" fill="#E24345"/>
<path d="M360.921 172.919C358.585 176.966 353.411 178.352 349.364 176.016C345.318 173.68 343.932 168.506 346.268 164.459C348.604 160.413 353.778 159.026 357.824 161.363C361.871 163.699 363.257 168.873 360.921 172.919Z" fill="#E24345"/>
<path d="M390.227 189.839C387.891 193.886 382.717 195.272 378.671 192.936C374.624 190.6 373.238 185.426 375.574 181.379C377.91 177.333 383.084 175.946 387.131 178.283C391.177 180.619 392.563 185.793 390.227 189.839Z" fill="#E24345"/>
<path d="M168.163 100.706C165.827 104.752 160.653 106.138 156.607 103.802C152.56 101.466 151.174 96.2919 153.51 92.2455C155.846 88.1992 161.02 86.8128 165.067 89.1489C169.113 91.4851 170.499 96.6592 168.163 100.706Z" fill="#E24345"/>
<path d="M197.47 117.626C195.133 121.672 189.959 123.058 185.913 120.722C181.867 118.386 180.48 113.212 182.816 109.166C185.153 105.119 190.327 103.733 194.373 106.069C198.419 108.405 199.806 113.579 197.47 117.626Z" fill="#E24345"/>
<path d="M226.776 134.546C224.44 138.592 219.266 139.978 215.219 137.642C211.173 135.306 209.786 130.132 212.123 126.086C214.459 122.039 219.633 120.653 223.679 122.989C227.726 125.325 229.112 130.499 226.776 134.546Z" fill="#E24345"/>
<path d="M256.082 151.465C253.746 155.512 248.572 156.898 244.526 154.562C240.479 152.226 239.093 147.052 241.429 143.006C243.765 138.959 248.939 137.573 252.986 139.909C257.032 142.245 258.418 147.419 256.082 151.465Z" fill="#E24345"/>
<path d="M285.388 168.385C283.052 172.432 277.878 173.818 273.832 171.482C269.785 169.146 268.399 163.972 270.735 159.926C273.071 155.879 278.245 154.493 282.292 156.829C286.338 159.165 287.725 164.339 285.388 168.385Z" fill="#E24345"/>
<path d="M314.695 185.305C312.359 189.352 307.184 190.738 303.138 188.402C299.092 186.066 297.705 180.892 300.042 176.846C302.378 172.799 307.552 171.413 311.598 173.749C315.644 176.085 317.031 181.259 314.695 185.305Z" fill="#E24345"/>
<path d="M344.001 202.225C341.665 206.272 336.491 207.658 332.444 205.322C328.398 202.986 327.012 197.812 329.348 193.766C331.684 189.719 336.858 188.333 340.904 190.669C344.951 193.005 346.337 198.179 344.001 202.225Z" fill="#E24345"/>
<path d="M373.307 219.146C370.971 223.192 365.797 224.578 361.751 222.242C357.704 219.906 356.318 214.732 358.654 210.686C360.99 206.639 366.164 205.253 370.211 207.589C374.257 209.925 375.643 215.099 373.307 219.146Z" fill="#E24345"/>
<path d="M151.243 130.012C148.907 134.058 143.733 135.445 139.687 133.108C135.64 130.772 134.254 125.598 136.59 121.552C138.926 117.505 144.1 116.119 148.147 118.455C152.193 120.791 153.579 125.965 151.243 130.012Z" fill="#E24345"/>
<path d="M180.549 146.932C178.213 150.978 173.039 152.365 168.993 150.028C164.947 147.692 163.56 142.518 165.896 138.472C168.232 134.425 173.407 133.039 177.453 135.375C181.499 137.711 182.886 142.885 180.549 146.932Z" fill="#E24345"/>
<path d="M209.856 163.852C207.52 167.898 202.346 169.285 198.299 166.948C194.253 164.612 192.866 159.438 195.203 155.392C197.539 151.345 202.713 149.959 206.759 152.295C210.806 154.631 212.192 159.805 209.856 163.852Z" fill="#E24345"/>
<path d="M239.162 180.772C236.826 184.818 231.652 186.205 227.606 183.868C223.559 181.532 222.173 176.358 224.509 172.312C226.845 168.265 232.019 166.879 236.066 169.215C240.112 171.551 241.498 176.725 239.162 180.772Z" fill="#E24345"/>
<path d="M268.468 197.692C266.132 201.738 260.958 203.125 256.912 200.788C252.865 198.452 251.479 193.278 253.815 189.232C256.151 185.185 261.325 183.799 265.372 186.135C269.418 188.471 270.805 193.645 268.468 197.692Z" fill="#E24345"/>
<path d="M297.775 214.612C295.439 218.658 290.264 220.045 286.218 217.708C282.172 215.372 280.785 210.198 283.122 206.152C285.458 202.105 290.632 200.719 294.678 203.055C298.724 205.391 300.111 210.565 297.775 214.612Z" fill="#E24345"/>
<path d="M327.081 231.532C324.745 235.578 319.571 236.965 315.524 234.628C311.478 232.292 310.092 227.118 312.428 223.072C314.764 219.025 319.938 217.639 323.984 219.975C328.031 222.311 329.417 227.485 327.081 231.532Z" fill="#E24345"/>
<path d="M356.387 248.452C354.051 252.498 348.877 253.885 344.831 251.548C340.784 249.212 339.398 244.038 341.734 239.992C344.07 235.945 349.244 234.559 353.291 236.895C357.337 239.231 358.723 244.405 356.387 248.452Z" fill="#E24345"/>
<path d="M134.323 159.318C131.987 163.364 126.813 164.751 122.767 162.415C118.72 160.079 117.334 154.904 119.67 150.858C122.006 146.812 127.18 145.425 131.227 147.762C135.273 150.098 136.659 155.272 134.323 159.318Z" fill="#E24345"/>
<path d="M163.629 176.238C161.293 180.285 156.119 181.671 152.073 179.335C148.027 176.999 146.64 171.825 148.976 167.778C151.312 163.732 156.487 162.345 160.533 164.682C164.579 167.018 165.966 172.192 163.629 176.238Z" fill="#E24345"/>
<path d="M192.936 193.158C190.6 197.205 185.426 198.591 181.379 196.255C177.333 193.919 175.946 188.745 178.283 184.698C180.619 180.652 185.793 179.265 189.839 181.602C193.886 183.938 195.272 189.112 192.936 193.158Z" fill="#E24345"/>
<path d="M222.242 210.078C219.906 214.125 214.732 215.511 210.685 213.175C206.639 210.839 205.253 205.665 207.589 201.618C209.925 197.572 215.099 196.185 219.145 198.522C223.192 200.858 224.578 206.032 222.242 210.078Z" fill="#E24345"/>
<path d="M251.548 226.998C249.212 231.045 244.038 232.431 239.992 230.095C235.945 227.759 234.559 222.585 236.895 218.538C239.231 214.492 244.405 213.105 248.452 215.442C252.498 217.778 253.885 222.952 251.548 226.998Z" fill="#E24345"/>
<path d="M280.855 243.918C278.519 247.965 273.344 249.351 269.298 247.015C265.252 244.679 263.865 239.505 266.202 235.458C268.538 231.412 273.712 230.025 277.758 232.362C281.804 234.698 283.191 239.872 280.855 243.918Z" fill="#E24345"/>
<path d="M310.161 260.838C307.825 264.885 302.651 266.271 298.604 263.935C294.558 261.599 293.172 256.425 295.508 252.378C297.844 248.332 303.018 246.945 307.064 249.282C311.111 251.618 312.497 256.792 310.161 260.838Z" fill="#E24345"/>
<path d="M339.467 277.758C337.131 281.805 331.957 283.191 327.911 280.855C323.864 278.519 322.478 273.345 324.814 269.298C327.15 265.252 332.324 263.865 336.371 266.202C340.417 268.538 341.803 273.712 339.467 277.758Z" fill="#E24345"/>
<path d="M117.403 188.624C115.067 192.671 109.893 194.057 105.847 191.721C101.8 189.385 100.414 184.211 102.75 180.164C105.086 176.118 110.26 174.732 114.307 177.068C118.353 179.404 119.739 184.578 117.403 188.624Z" fill="#E24345"/>
<path d="M146.71 205.544C144.373 209.591 139.199 210.977 135.153 208.641C131.107 206.305 129.72 201.131 132.056 197.084C134.393 193.038 139.567 191.652 143.613 193.988C147.659 196.324 149.046 201.498 146.71 205.544Z" fill="#E24345"/>
<path d="M176.016 222.464C173.68 226.511 168.506 227.897 164.459 225.561C160.413 223.225 159.027 218.051 161.363 214.004C163.699 209.958 168.873 208.572 172.919 210.908C176.966 213.244 178.352 218.418 176.016 222.464Z" fill="#E24345"/>
<path d="M205.322 239.384C202.986 243.431 197.812 244.817 193.766 242.481C189.719 240.145 188.333 234.971 190.669 230.924C193.005 226.878 198.179 225.492 202.226 227.828C206.272 230.164 207.658 235.338 205.322 239.384Z" fill="#E24345"/>
<path d="M234.628 256.304C232.292 260.351 227.118 261.737 223.072 259.401C219.025 257.065 217.639 251.891 219.975 247.844C222.311 243.798 227.485 242.412 231.532 244.748C235.578 247.084 236.965 252.258 234.628 256.304Z" fill="#E24345"/>
<path d="M263.935 273.224C261.599 277.271 256.424 278.657 252.378 276.321C248.332 273.985 246.945 268.811 249.282 264.764C251.618 260.718 256.792 259.332 260.838 261.668C264.884 264.004 266.271 269.178 263.935 273.224Z" fill="#E24345"/>
<path d="M293.241 290.144C290.905 294.191 285.731 295.577 281.684 293.241C277.638 290.905 276.252 285.731 278.588 281.684C280.924 277.638 286.098 276.252 290.144 278.588C294.191 280.924 295.577 286.098 293.241 290.144Z" fill="#E24345"/>
<path d="M322.547 307.064C320.211 311.111 315.037 312.497 310.991 310.161C306.944 307.825 305.558 302.651 307.894 298.604C310.23 294.558 315.404 293.172 319.451 295.508C323.497 297.844 324.883 303.018 322.547 307.064Z" fill="#E24345"/>
<path d="M100.483 217.931C98.147 221.977 92.973 223.363 88.9266 221.027C84.8803 218.691 83.4939 213.517 85.83 209.471C88.1662 205.424 93.3403 204.038 97.3866 206.374C101.433 208.71 102.819 213.884 100.483 217.931Z" fill="#E24345"/>
<path d="M129.789 234.851C127.453 238.897 122.279 240.283 118.233 237.947C114.187 235.611 112.8 230.437 115.136 226.391C117.473 222.344 122.647 220.958 126.693 223.294C130.739 225.63 132.126 230.804 129.789 234.851Z" fill="#E24345"/>
<path d="M159.096 251.771C156.76 255.817 151.586 257.203 147.539 254.867C143.493 252.531 142.106 247.357 144.443 243.311C146.779 239.264 151.953 237.878 155.999 240.214C160.046 242.55 161.432 247.724 159.096 251.771Z" fill="#E24345"/>
<path d="M188.402 268.691C186.066 272.737 180.892 274.123 176.846 271.787C172.799 269.451 171.413 264.277 173.749 260.231C176.085 256.184 181.259 254.798 185.306 257.134C189.352 259.47 190.738 264.644 188.402 268.691Z" fill="#E24345"/>
<path d="M217.708 285.611C215.372 289.657 210.198 291.043 206.152 288.707C202.105 286.371 200.719 281.197 203.055 277.151C205.391 273.104 210.565 271.718 214.612 274.054C218.658 276.39 220.045 281.564 217.708 285.611Z" fill="#E24345"/>
<path d="M247.015 302.531C244.679 306.577 239.504 307.963 235.458 305.627C231.412 303.291 230.025 298.117 232.362 294.071C234.698 290.024 239.872 288.638 243.918 290.974C247.964 293.31 249.351 298.484 247.015 302.531Z" fill="#E24345"/>
<path d="M276.321 319.451C273.985 323.497 268.811 324.883 264.764 322.547C260.718 320.211 259.332 315.037 261.668 310.991C264.004 306.944 269.178 305.558 273.224 307.894C277.271 310.23 278.657 315.404 276.321 319.451Z" fill="#E24345"/>
<path d="M305.627 336.371C303.291 340.417 298.117 341.803 294.071 339.467C290.024 337.131 288.638 331.957 290.974 327.911C293.31 323.864 298.484 322.478 302.531 324.814C306.577 327.15 307.963 332.324 305.627 336.371Z" fill="#E24345"/>
<path d="M83.5632 247.237C81.227 251.283 76.053 252.67 72.0066 250.334C67.9603 247.997 66.5739 242.823 68.91 238.777C71.2462 234.731 76.4203 233.344 80.4666 235.68C84.513 238.017 85.8994 243.191 83.5632 247.237Z" fill="#E24345"/>
<path d="M112.869 264.157C110.533 268.203 105.359 269.59 101.313 267.254C97.2665 264.917 95.8802 259.743 98.2163 255.697C100.552 251.651 105.727 250.264 109.773 252.6C113.819 254.937 115.206 260.111 112.869 264.157Z" fill="#E24345"/>
<path d="M142.176 281.077C139.84 285.123 134.666 286.51 130.619 284.174C126.573 281.837 125.186 276.663 127.523 272.617C129.859 268.571 135.033 267.184 139.079 269.52C143.126 271.857 144.512 277.031 142.176 281.077Z" fill="#E24345"/>
<path d="M171.482 297.997C169.146 302.043 163.972 303.43 159.926 301.094C155.879 298.757 154.493 293.583 156.829 289.537C159.165 285.491 164.339 284.104 168.385 286.44C172.432 288.777 173.818 293.951 171.482 297.997Z" fill="#E24345"/>
<path d="M200.788 314.917C198.452 318.963 193.278 320.35 189.232 318.014C185.185 315.677 183.799 310.503 186.135 306.457C188.471 302.411 193.645 301.024 197.692 303.36C201.738 305.697 203.125 310.871 200.788 314.917Z" fill="#E24345"/>
<path d="M230.095 331.837C227.759 335.883 222.584 337.27 218.538 334.934C214.492 332.597 213.105 327.423 215.442 323.377C217.778 319.331 222.952 317.944 226.998 320.28C231.044 322.617 232.431 327.791 230.095 331.837Z" fill="#E24345"/>
<path d="M259.401 348.757C257.065 352.803 251.891 354.19 247.844 351.854C243.798 349.517 242.412 344.343 244.748 340.297C247.084 336.251 252.258 334.864 256.304 337.2C260.351 339.537 261.737 344.711 259.401 348.757Z" fill="#E24345"/>
<path d="M288.707 365.677C286.371 369.723 281.197 371.11 277.151 368.774C273.104 366.437 271.718 361.263 274.054 357.217C276.39 353.171 281.564 351.784 285.611 354.12C289.657 356.457 291.043 361.631 288.707 365.677Z" fill="#E24345"/>
<path d="M66.6432 276.543C64.307 280.59 59.133 281.976 55.0866 279.64C51.0403 277.304 49.6539 272.13 51.99 268.083C54.3262 264.037 59.5003 262.651 63.5466 264.987C67.593 267.323 68.9794 272.497 66.6432 276.543Z" fill="#E24345"/>
<path d="M95.9495 293.463C93.6134 297.51 88.4393 298.896 84.393 296.56C80.3466 294.224 78.9602 289.05 81.2964 285.003C83.6325 280.957 88.8066 279.571 92.853 281.907C96.8993 284.243 98.2857 289.417 95.9495 293.463Z" fill="#E24345"/>
<path d="M125.256 310.383C122.92 314.43 117.746 315.816 113.699 313.48C109.653 311.144 108.267 305.97 110.603 301.923C112.939 297.877 118.113 296.491 122.159 298.827C126.206 301.163 127.592 306.337 125.256 310.383Z" fill="#E24345"/>
<path d="M154.562 327.303C152.226 331.35 147.052 332.736 143.006 330.4C138.959 328.064 137.573 322.89 139.909 318.843C142.245 314.797 147.419 313.411 151.466 315.747C155.512 318.083 156.898 323.257 154.562 327.303Z" fill="#E24345"/>
<path d="M183.868 344.223C181.532 348.27 176.358 349.656 172.312 347.32C168.265 344.984 166.879 339.81 169.215 335.763C171.551 331.717 176.725 330.331 180.772 332.667C184.818 335.003 186.205 340.177 183.868 344.223Z" fill="#E24345"/>
<path d="M213.175 361.143C210.839 365.19 205.665 366.576 201.618 364.24C197.572 361.904 196.185 356.73 198.522 352.683C200.858 348.637 206.032 347.251 210.078 349.587C214.124 351.923 215.511 357.097 213.175 361.143Z" fill="#E24345"/>
<path d="M242.481 378.063C240.145 382.11 234.971 383.496 230.924 381.16C226.878 378.824 225.492 373.65 227.828 369.603C230.164 365.557 235.338 364.171 239.384 366.507C243.431 368.843 244.817 374.017 242.481 378.063Z" fill="#E24345"/>
<path d="M271.787 394.983C269.451 399.03 264.277 400.416 260.231 398.08C256.184 395.744 254.798 390.57 257.134 386.523C259.47 382.477 264.644 381.091 268.691 383.427C272.737 385.763 274.123 390.937 271.787 394.983Z" fill="#E24345"/>
<path d="M49.7232 305.85C47.387 309.896 42.213 311.282 38.1666 308.946C34.1203 306.61 32.7339 301.436 35.07 297.39C37.4062 293.343 42.5803 291.957 46.6266 294.293C50.673 296.629 52.0594 301.803 49.7232 305.85Z" fill="#E24345"/>
<path d="M79.0295 322.77C76.6933 326.816 71.5193 328.202 67.4729 325.866C63.4266 323.53 62.0402 318.356 64.3764 314.31C66.7125 310.263 71.8866 308.877 75.9329 311.213C79.9793 313.549 81.3657 318.723 79.0295 322.77Z" fill="#E24345"/>
<path d="M108.336 339.69C106 343.736 100.826 345.122 96.7792 342.786C92.7329 340.45 91.3465 335.276 93.6827 331.23C96.0188 327.183 101.193 325.797 105.239 328.133C109.286 330.469 110.672 335.643 108.336 339.69Z" fill="#E24345"/>
<path d="M137.642 356.61C135.306 360.656 130.132 362.042 126.086 359.706C122.039 357.37 120.653 352.196 122.989 348.15C125.325 344.103 130.499 342.717 134.546 345.053C138.592 347.389 139.978 352.563 137.642 356.61Z" fill="#E24345"/>
<path d="M166.948 373.53C164.612 377.576 159.438 378.962 155.392 376.626C151.345 374.29 149.959 369.116 152.295 365.07C154.631 361.023 159.805 359.637 163.852 361.973C167.898 364.309 169.285 369.483 166.948 373.53Z" fill="#E24345"/>
<path d="M196.255 390.45C193.919 394.496 188.744 395.882 184.698 393.546C180.652 391.21 179.265 386.036 181.602 381.99C183.938 377.943 189.112 376.557 193.158 378.893C197.204 381.229 198.591 386.403 196.255 390.45Z" fill="#E24345"/>
<path d="M225.561 407.37C223.225 411.416 218.051 412.802 214.004 410.466C209.958 408.13 208.572 402.956 210.908 398.91C213.244 394.863 218.418 393.477 222.464 395.813C226.511 398.149 227.897 403.323 225.561 407.37Z" fill="#E24345"/>
<path d="M254.867 424.29C252.531 428.336 247.357 429.722 243.311 427.386C239.264 425.05 237.878 419.876 240.214 415.83C242.55 411.783 247.724 410.397 251.771 412.733C255.817 415.069 257.203 420.243 254.867 424.29Z" fill="#E24345"/>
<path d="M32.8032 335.156C30.467 339.202 25.293 340.589 21.2466 338.252C17.2003 335.916 15.8139 330.742 18.1501 326.696C20.4862 322.65 25.6603 321.263 29.7066 323.599C33.753 325.935 35.1394 331.11 32.8032 335.156Z" fill="#E24345"/>
<path d="M62.1095 352.076C59.7733 356.122 54.5993 357.509 50.5529 355.172C46.5066 352.836 45.1202 347.662 47.4563 343.616C49.7925 339.57 54.9666 338.183 59.0129 340.519C63.0593 342.856 64.4457 348.03 62.1095 352.076Z" fill="#E24345"/>
<path d="M91.4158 368.996C89.0796 373.042 83.9056 374.429 79.8592 372.092C75.8129 369.756 74.4265 364.582 76.7626 360.536C79.0988 356.49 84.2729 355.103 88.3192 357.439C92.3656 359.775 93.752 364.95 91.4158 368.996Z" fill="#E24345"/>
<path d="M120.722 385.916C118.386 389.962 113.212 391.349 109.166 389.012C105.119 386.676 103.733 381.502 106.069 377.456C108.405 373.41 113.579 372.023 117.626 374.359C121.672 376.696 123.058 381.87 120.722 385.916Z" fill="#E24345"/>
<path d="M150.028 402.836C147.692 406.882 142.518 408.269 138.472 405.932C134.425 403.596 133.039 398.422 135.375 394.376C137.711 390.33 142.885 388.943 146.932 391.279C150.978 393.616 152.365 398.79 150.028 402.836Z" fill="#E24345"/>
<path d="M179.335 419.756C176.999 423.802 171.824 425.189 167.778 422.852C163.732 420.516 162.345 415.342 164.682 411.296C167.018 407.25 172.192 405.863 176.238 408.199C180.284 410.536 181.671 415.71 179.335 419.756Z" fill="#E24345"/>
<path d="M208.641 436.676C206.305 440.722 201.131 442.109 197.084 439.772C193.038 437.436 191.652 432.262 193.988 428.216C196.324 424.17 201.498 422.783 205.544 425.119C209.591 427.456 210.977 432.63 208.641 436.676Z" fill="#E24345"/>
<path d="M237.947 453.596C235.611 457.642 230.437 459.029 226.391 456.693C222.344 454.356 220.958 449.182 223.294 445.136C225.63 441.09 230.804 439.703 234.851 442.039C238.897 444.376 240.283 449.55 237.947 453.596Z" fill="#E24345"/>
<path d="M15.8832 364.462C13.547 368.509 8.37298 369.895 4.32663 367.559C0.280272 365.223 -1.10611 360.049 1.23005 356.002C3.56622 351.956 8.74027 350.569 12.7866 352.906C16.833 355.242 18.2194 360.416 15.8832 364.462Z" fill="#E24345"/>
<path d="M45.1895 381.382C42.8533 385.429 37.6793 386.815 33.6329 384.479C29.5865 382.143 28.2002 376.969 30.5363 372.922C32.8725 368.876 38.0465 367.49 42.0929 369.826C46.1393 372.162 47.5256 377.336 45.1895 381.382Z" fill="#E24345"/>
<path d="M74.4958 398.302C72.1596 402.349 66.9856 403.735 62.9392 401.399C58.8928 399.063 57.5065 393.889 59.8426 389.842C62.1788 385.796 67.3528 384.41 71.3992 386.746C75.4456 389.082 76.8319 394.256 74.4958 398.302Z" fill="#E24345"/>
<path d="M103.802 415.222C101.466 419.269 96.2919 420.655 92.2455 418.319C88.1991 415.983 86.8128 410.809 89.1489 406.762C91.4851 402.716 96.6591 401.33 100.705 403.666C104.752 406.002 106.138 411.176 103.802 415.222Z" fill="#E24345"/>
<path d="M133.108 432.142C130.772 436.189 125.598 437.575 121.552 435.239C117.505 432.903 116.119 427.729 118.455 423.682C120.791 419.636 125.965 418.249 130.012 420.586C134.058 422.922 135.445 428.096 133.108 432.142Z" fill="#E24345"/>
<path d="M162.415 449.062C160.079 453.109 154.904 454.495 150.858 452.159C146.812 449.823 145.425 444.649 147.762 440.602C150.098 436.556 155.272 435.17 159.318 437.506C163.364 439.842 164.751 445.016 162.415 449.062Z" fill="#E24345"/>
<path d="M191.721 465.982C189.385 470.029 184.211 471.415 180.164 469.079C176.118 466.743 174.732 461.569 177.068 457.522C179.404 453.476 184.578 452.089 188.624 454.426C192.671 456.762 194.057 461.936 191.721 465.982Z" fill="#E24345"/>
<path d="M221.027 482.902C218.691 486.949 213.517 488.335 209.471 485.999C205.424 483.663 204.038 478.489 206.374 474.442C208.71 470.396 213.884 469.01 217.931 471.346C221.977 473.682 223.363 478.856 221.027 482.902Z" fill="#E24345"/>
</g>
</svg>
