<svg width="86" height="86" viewBox="0 0 86 86" fill="none" xmlns="http://www.w3.org/2000/svg">
<circle cx="43" cy="43" r="43" fill="black" fill-opacity="0.05"/>
<g filter="url(#filter0_bi_605_19964)">
<path d="M52 43C50.9333 43 49.925 42.825 48.975 42.475C48.025 42.125 47.1667 41.6417 46.4 41.025L44.425 43L43 41.575L44.975 39.6C44.3583 38.8333 43.875 37.9707 43.525 37.012C43.175 36.0533 43 35.0493 43 34C43 31.5 43.8793 29.375 45.638 27.625C47.3967 25.875 49.5173 25 52 25H61V34C61 36.4833 60.125 38.6043 58.375 40.363C56.625 42.1217 54.5 43.0007 52 43ZM50.675 38.875L55.85 34.25C56.0167 34.1 56.0667 33.921 56 33.713C55.9333 33.505 55.7833 33.384 55.55 33.35L51.5 32.95L53.925 29.625C53.9917 29.5417 54.021 29.4543 54.013 29.363C54.005 29.2717 53.9673 29.184 53.9 29.1C53.8167 29.0167 53.7207 28.975 53.612 28.975C53.5033 28.975 53.4077 29.0167 53.325 29.1L48.175 33.725C48.0083 33.875 47.9583 34.0543 48.025 34.263C48.0917 34.4717 48.2417 34.5923 48.475 34.625L52.525 35.025L50.075 38.35C50.025 38.4333 50 38.521 50 38.613C50 38.705 50.0417 38.7923 50.125 38.875C50.2083 38.9583 50.3 39 50.4 39C50.5 39 50.5917 38.9583 50.675 38.875Z" fill="url(#paint0_linear_605_19964)" fill-opacity="0.1"/>
<path d="M52 43C50.9333 43 49.925 42.825 48.975 42.475C48.025 42.125 47.1667 41.6417 46.4 41.025L44.425 43L43 41.575L44.975 39.6C44.3583 38.8333 43.875 37.9707 43.525 37.012C43.175 36.0533 43 35.0493 43 34C43 31.5 43.8793 29.375 45.638 27.625C47.3967 25.875 49.5173 25 52 25H61V34C61 36.4833 60.125 38.6043 58.375 40.363C56.625 42.1217 54.5 43.0007 52 43ZM50.675 38.875L55.85 34.25C56.0167 34.1 56.0667 33.921 56 33.713C55.9333 33.505 55.7833 33.384 55.55 33.35L51.5 32.95L53.925 29.625C53.9917 29.5417 54.021 29.4543 54.013 29.363C54.005 29.2717 53.9673 29.184 53.9 29.1C53.8167 29.0167 53.7207 28.975 53.612 28.975C53.5033 28.975 53.4077 29.0167 53.325 29.1L48.175 33.725C48.0083 33.875 47.9583 34.0543 48.025 34.263C48.0917 34.4717 48.2417 34.5923 48.475 34.625L52.525 35.025L50.075 38.35C50.025 38.4333 50 38.521 50 38.613C50 38.705 50.0417 38.7923 50.125 38.875C50.2083 38.9583 50.3 39 50.4 39C50.5 39 50.5917 38.9583 50.675 38.875Z" fill="black" fill-opacity="0.05"/>
<path d="M50.675 38.875L55.85 34.25C56.0167 34.1 56.0667 33.921 56 33.713C55.9333 33.505 55.7833 33.384 55.55 33.35L51.5 32.95L53.925 29.625C53.9917 29.5417 54.021 29.4543 54.013 29.363C54.005 29.2717 53.9673 29.184 53.9 29.1C53.8167 29.0167 53.7207 28.975 53.612 28.975C53.5033 28.975 53.4077 29.0167 53.325 29.1L48.175 33.725C48.0083 33.875 47.9583 34.0543 48.025 34.263C48.0917 34.4717 48.2417 34.5923 48.475 34.625L52.525 35.025L50.075 38.35C50.025 38.4333 50 38.521 50 38.613C50 38.705 50.0417 38.7923 50.125 38.875C50.2083 38.9583 50.3 39 50.4 39C50.5 39 50.5917 38.9583 50.675 38.875Z" fill="url(#paint1_linear_605_19964)" fill-opacity="0.1"/>
<path d="M50.675 38.875L55.85 34.25C56.0167 34.1 56.0667 33.921 56 33.713C55.9333 33.505 55.7833 33.384 55.55 33.35L51.5 32.95L53.925 29.625C53.9917 29.5417 54.021 29.4543 54.013 29.363C54.005 29.2717 53.9673 29.184 53.9 29.1C53.8167 29.0167 53.7207 28.975 53.612 28.975C53.5033 28.975 53.4077 29.0167 53.325 29.1L48.175 33.725C48.0083 33.875 47.9583 34.0543 48.025 34.263C48.0917 34.4717 48.2417 34.5923 48.475 34.625L52.525 35.025L50.075 38.35C50.025 38.4333 50 38.521 50 38.613C50 38.705 50.0417 38.7923 50.125 38.875C50.2083 38.9583 50.3 39 50.4 39C50.5 39 50.5917 38.9583 50.675 38.875Z" fill="black" fill-opacity="0.05"/>
</g>
<g clip-path="url(#clip0_605_19964)">
<g filter="url(#filter1_ddd_605_19964)">
<path d="M40.8125 56.5L47.495 43.1213H42.875V34.5L36 47.8787H40.8125V56.5ZM41.5 31.75C45.2812 31.75 48.5125 33.125 51.1937 35.8062C53.875 38.4875 55.25 41.7188 55.25 45.5C55.25 49.2812 53.875 52.5125 51.1937 55.1937C48.5125 57.875 45.2812 59.25 41.5 59.25C37.7188 59.25 34.4875 57.875 31.8062 55.1937C29.125 52.5125 27.75 49.2812 27.75 45.5C27.75 41.7188 29.125 38.4875 31.8062 35.8062C34.4875 33.125 37.7188 31.75 41.5 31.75Z" fill="black"/>
<path d="M40.8125 56.5L47.495 43.1213H42.875V34.5L36 47.8787H40.8125V56.5ZM41.5 31.75C45.2812 31.75 48.5125 33.125 51.1937 35.8062C53.875 38.4875 55.25 41.7188 55.25 45.5C55.25 49.2812 53.875 52.5125 51.1937 55.1937C48.5125 57.875 45.2812 59.25 41.5 59.25C37.7188 59.25 34.4875 57.875 31.8062 55.1937C29.125 52.5125 27.75 49.2812 27.75 45.5C27.75 41.7188 29.125 38.4875 31.8062 35.8062C34.4875 33.125 37.7188 31.75 41.5 31.75Z" fill="url(#paint2_linear_605_19964)"/>
</g>
</g>
<defs>
<filter id="filter0_bi_605_19964" x="30" y="12" width="44" height="44" filterUnits="userSpaceOnUse" color-interpolation-filters="sRGB">
<feFlood flood-opacity="0" result="BackgroundImageFix"/>
<feGaussianBlur in="BackgroundImageFix" stdDeviation="6.5"/>
<feComposite in2="SourceAlpha" operator="in" result="effect1_backgroundBlur_605_19964"/>
<feBlend mode="normal" in="SourceGraphic" in2="effect1_backgroundBlur_605_19964" result="shape"/>
<feColorMatrix in="SourceAlpha" type="matrix" values="0 0 0 0 0 0 0 0 0 0 0 0 0 0 0 0 0 0 127 0" result="hardAlpha"/>
<feOffset dx="-3"/>
<feGaussianBlur stdDeviation="4"/>
<feComposite in2="hardAlpha" operator="arithmetic" k2="-1" k3="1"/>
<feColorMatrix type="matrix" values="0 0 0 0 0.921569 0 0 0 0 0.294118 0 0 0 0 0.301961 0 0 0 0.5 0"/>
<feBlend mode="normal" in2="shape" result="effect2_innerShadow_605_19964"/>
</filter>
<filter id="filter1_ddd_605_19964" x="7.75" y="21.75" width="67.5" height="67.5" filterUnits="userSpaceOnUse" color-interpolation-filters="sRGB">
<feFlood flood-opacity="0" result="BackgroundImageFix"/>
<feColorMatrix in="SourceAlpha" type="matrix" values="0 0 0 0 0 0 0 0 0 0 0 0 0 0 0 0 0 0 127 0" result="hardAlpha"/>
<feOffset/>
<feGaussianBlur stdDeviation="0.5"/>
<feColorMatrix type="matrix" values="0 0 0 0 0.921569 0 0 0 0 0.294118 0 0 0 0 0.301961 0 0 0 0.1 0"/>
<feBlend mode="normal" in2="BackgroundImageFix" result="effect1_dropShadow_605_19964"/>
<feColorMatrix in="SourceAlpha" type="matrix" values="0 0 0 0 0 0 0 0 0 0 0 0 0 0 0 0 0 0 127 0" result="hardAlpha"/>
<feOffset dy="2"/>
<feGaussianBlur stdDeviation="3"/>
<feColorMatrix type="matrix" values="0 0 0 0 0.921569 0 0 0 0 0.294118 0 0 0 0 0.301961 0 0 0 0.1 0"/>
<feBlend mode="normal" in2="effect1_dropShadow_605_19964" result="effect2_dropShadow_605_19964"/>
<feColorMatrix in="SourceAlpha" type="matrix" values="0 0 0 0 0 0 0 0 0 0 0 0 0 0 0 0 0 0 127 0" result="hardAlpha"/>
<feOffset dy="10"/>
<feGaussianBlur stdDeviation="10"/>
<feColorMatrix type="matrix" values="0 0 0 0 0.921569 0 0 0 0 0.294118 0 0 0 0 0.301961 0 0 0 0.11 0"/>
<feBlend mode="normal" in2="effect2_dropShadow_605_19964" result="effect3_dropShadow_605_19964"/>
<feBlend mode="normal" in="SourceGraphic" in2="effect3_dropShadow_605_19964" result="shape"/>
</filter>
<linearGradient id="paint0_linear_605_19964" x1="52" y1="25" x2="52" y2="43" gradientUnits="userSpaceOnUse">
<stop stop-color="#DC3C3E"/>
<stop offset="1" stop-color="#FF7375"/>
</linearGradient>
<linearGradient id="paint1_linear_605_19964" x1="52" y1="25" x2="52" y2="43" gradientUnits="userSpaceOnUse">
<stop stop-color="#DC3C3E"/>
<stop offset="1" stop-color="#FF7375"/>
</linearGradient>
<linearGradient id="paint2_linear_605_19964" x1="41.5" y1="31.75" x2="41.5" y2="59.25" gradientUnits="userSpaceOnUse">
<stop stop-color="#DC3C3E"/>
<stop offset="1" stop-color="#FF7375"/>
</linearGradient>
<clipPath id="clip0_605_19964">
<rect width="33" height="33" fill="white" transform="translate(25 29)"/>
</clipPath>
</defs>
</svg>
