<svg width="86" height="87" viewBox="0 0 86 87" fill="none" xmlns="http://www.w3.org/2000/svg">
<circle cx="43" cy="43.5" r="43" fill="black" fill-opacity="0.05"/>
<g clip-path="url(#clip0_605_19953)">
<g filter="url(#filter0_bi_605_19953)">
<path d="M54.3214 41.4926L52.5782 36.0977L54.6475 35.429L56.3907 40.824L54.3214 41.4926ZM45.3254 36.8905L44.6567 34.8212L51.4558 32.6242L50.9146 30.9491L50.2248 31.1719L49.8188 29.9156L49.1352 31.252L48.4454 31.4748L47.4823 28.4941L48.172 28.2712L49.5084 28.9548L49.1104 27.7231L52.6085 26.5928C52.937 26.4867 53.2511 26.4486 53.5511 26.4787C53.851 26.5087 54.1313 26.5904 54.3921 26.7238C54.6528 26.8572 54.8831 27.0367 55.083 27.2624C55.2829 27.488 55.4359 27.765 55.542 28.0935L53.2756 28.8258L53.6736 30.0575L52.9839 30.2804L53.5251 31.9556L55.7422 31.2392C55.7599 31.0974 55.7886 30.9545 55.8284 30.8103C55.8681 30.6661 55.9212 30.5288 55.9874 30.3982C56.3154 29.7571 56.812 29.3291 57.4775 29.1141C58.143 28.899 58.7959 28.9556 59.4362 29.2838C59.5992 29.3671 59.7458 29.4627 59.876 29.5704C60.0063 29.6782 60.1305 29.8034 60.2488 29.9462L57.81 30.7342L58.3832 32.5079L60.822 31.7199C60.8202 31.9109 60.7956 32.0866 60.748 32.2471C60.7005 32.4076 60.6347 32.5694 60.5507 32.7326C60.2227 33.3736 59.7262 33.8017 59.0612 34.017C58.3962 34.2322 57.7431 34.1756 57.1018 33.847C56.9714 33.7803 56.8466 33.7027 56.7274 33.6143C56.6081 33.5259 56.5026 33.4239 56.4109 33.3085L45.3254 36.8905Z" fill="url(#paint0_linear_605_19953)" fill-opacity="0.1"/>
<path d="M54.3214 41.4926L52.5782 36.0977L54.6475 35.429L56.3907 40.824L54.3214 41.4926ZM45.3254 36.8905L44.6567 34.8212L51.4558 32.6242L50.9146 30.9491L50.2248 31.1719L49.8188 29.9156L49.1352 31.252L48.4454 31.4748L47.4823 28.4941L48.172 28.2712L49.5084 28.9548L49.1104 27.7231L52.6085 26.5928C52.937 26.4867 53.2511 26.4486 53.5511 26.4787C53.851 26.5087 54.1313 26.5904 54.3921 26.7238C54.6528 26.8572 54.8831 27.0367 55.083 27.2624C55.2829 27.488 55.4359 27.765 55.542 28.0935L53.2756 28.8258L53.6736 30.0575L52.9839 30.2804L53.5251 31.9556L55.7422 31.2392C55.7599 31.0974 55.7886 30.9545 55.8284 30.8103C55.8681 30.6661 55.9212 30.5288 55.9874 30.3982C56.3154 29.7571 56.812 29.3291 57.4775 29.1141C58.143 28.899 58.7959 28.9556 59.4362 29.2838C59.5992 29.3671 59.7458 29.4627 59.876 29.5704C60.0063 29.6782 60.1305 29.8034 60.2488 29.9462L57.81 30.7342L58.3832 32.5079L60.822 31.7199C60.8202 31.9109 60.7956 32.0866 60.748 32.2471C60.7005 32.4076 60.6347 32.5694 60.5507 32.7326C60.2227 33.3736 59.7262 33.8017 59.0612 34.017C58.3962 34.2322 57.7431 34.1756 57.1018 33.847C56.9714 33.7803 56.8466 33.7027 56.7274 33.6143C56.6081 33.5259 56.5026 33.4239 56.4109 33.3085L45.3254 36.8905Z" fill="black" fill-opacity="0.05"/>
</g>
</g>
<g clip-path="url(#clip1_605_19953)">
<g filter="url(#filter1_ddd_605_19953)">
<path d="M40.9999 49.25C34.0016 49.25 28.3333 52.0841 28.3333 55.5833V58.75H53.6666V55.5833C53.6666 52.0841 47.9983 49.25 40.9999 49.25ZM34.6666 39.75C34.6666 41.4297 35.3338 43.0406 36.5216 44.2283C37.7093 45.416 39.3202 46.0833 40.9999 46.0833C42.6796 46.0833 44.2905 45.416 45.4783 44.2283C46.666 43.0406 47.3333 41.4297 47.3333 39.75M40.2083 28.6666C39.7333 28.6666 39.4166 28.9991 39.4166 29.4583V34.2083H37.8333V30.25C37.8333 30.25 34.2708 31.6116 34.2708 36.1875C34.2708 36.1875 33.0833 36.4091 33.0833 38.1666H48.9166C48.8374 36.4091 47.7291 36.1875 47.7291 36.1875C47.7291 31.6116 44.1666 30.25 44.1666 30.25V34.2083H42.5833V29.4583C42.5833 28.9991 42.2824 28.6666 41.7916 28.6666H40.2083Z" fill="black"/>
<path d="M40.9999 49.25C34.0016 49.25 28.3333 52.0841 28.3333 55.5833V58.75H53.6666V55.5833C53.6666 52.0841 47.9983 49.25 40.9999 49.25ZM34.6666 39.75C34.6666 41.4297 35.3338 43.0406 36.5216 44.2283C37.7093 45.416 39.3202 46.0833 40.9999 46.0833C42.6796 46.0833 44.2905 45.416 45.4783 44.2283C46.666 43.0406 47.3333 41.4297 47.3333 39.75M40.2083 28.6666C39.7333 28.6666 39.4166 28.9991 39.4166 29.4583V34.2083H37.8333V30.25C37.8333 30.25 34.2708 31.6116 34.2708 36.1875C34.2708 36.1875 33.0833 36.4091 33.0833 38.1666H48.9166C48.8374 36.4091 47.7291 36.1875 47.7291 36.1875C47.7291 31.6116 44.1666 30.25 44.1666 30.25V34.2083H42.5833V29.4583C42.5833 28.9991 42.2824 28.6666 41.7916 28.6666H40.2083Z" fill="url(#paint1_linear_605_19953)"/>
</g>
</g>
<defs>
<filter id="filter0_bi_605_19953" x="31.6567" y="13.4688" width="42.1653" height="41.0239" filterUnits="userSpaceOnUse" color-interpolation-filters="sRGB">
<feFlood flood-opacity="0" result="BackgroundImageFix"/>
<feGaussianBlur in="BackgroundImageFix" stdDeviation="6.5"/>
<feComposite in2="SourceAlpha" operator="in" result="effect1_backgroundBlur_605_19953"/>
<feBlend mode="normal" in="SourceGraphic" in2="effect1_backgroundBlur_605_19953" result="shape"/>
<feColorMatrix in="SourceAlpha" type="matrix" values="0 0 0 0 0 0 0 0 0 0 0 0 0 0 0 0 0 0 127 0" result="hardAlpha"/>
<feOffset dx="-3"/>
<feGaussianBlur stdDeviation="4"/>
<feComposite in2="hardAlpha" operator="arithmetic" k2="-1" k3="1"/>
<feColorMatrix type="matrix" values="0 0 0 0 0.921569 0 0 0 0 0.294118 0 0 0 0 0.301961 0 0 0 0.5 0"/>
<feBlend mode="normal" in2="shape" result="effect2_innerShadow_605_19953"/>
</filter>
<filter id="filter1_ddd_605_19953" x="8.33325" y="18.6666" width="65.3333" height="70.0834" filterUnits="userSpaceOnUse" color-interpolation-filters="sRGB">
<feFlood flood-opacity="0" result="BackgroundImageFix"/>
<feColorMatrix in="SourceAlpha" type="matrix" values="0 0 0 0 0 0 0 0 0 0 0 0 0 0 0 0 0 0 127 0" result="hardAlpha"/>
<feOffset/>
<feGaussianBlur stdDeviation="0.5"/>
<feColorMatrix type="matrix" values="0 0 0 0 0.921569 0 0 0 0 0.294118 0 0 0 0 0.301961 0 0 0 0.1 0"/>
<feBlend mode="normal" in2="BackgroundImageFix" result="effect1_dropShadow_605_19953"/>
<feColorMatrix in="SourceAlpha" type="matrix" values="0 0 0 0 0 0 0 0 0 0 0 0 0 0 0 0 0 0 127 0" result="hardAlpha"/>
<feOffset dy="2"/>
<feGaussianBlur stdDeviation="3"/>
<feColorMatrix type="matrix" values="0 0 0 0 0.921569 0 0 0 0 0.294118 0 0 0 0 0.301961 0 0 0 0.1 0"/>
<feBlend mode="normal" in2="effect1_dropShadow_605_19953" result="effect2_dropShadow_605_19953"/>
<feColorMatrix in="SourceAlpha" type="matrix" values="0 0 0 0 0 0 0 0 0 0 0 0 0 0 0 0 0 0 127 0" result="hardAlpha"/>
<feOffset dy="10"/>
<feGaussianBlur stdDeviation="10"/>
<feColorMatrix type="matrix" values="0 0 0 0 0.921569 0 0 0 0 0.294118 0 0 0 0 0.301961 0 0 0 0.11 0"/>
<feBlend mode="normal" in2="effect2_dropShadow_605_19953" result="effect3_dropShadow_605_19953"/>
<feBlend mode="normal" in="SourceGraphic" in2="effect3_dropShadow_605_19953" result="shape"/>
</filter>
<linearGradient id="paint0_linear_605_19953" x1="55.6797" y1="27.362" x2="49.6686" y2="39.1123" gradientUnits="userSpaceOnUse">
<stop stop-color="#DC3C3E"/>
<stop offset="1" stop-color="#FF7375"/>
</linearGradient>
<linearGradient id="paint1_linear_605_19953" x1="40.9999" y1="28.6666" x2="40.9999" y2="58.75" gradientUnits="userSpaceOnUse">
<stop stop-color="#DC3C3E"/>
<stop offset="1" stop-color="#FF7375"/>
</linearGradient>
<clipPath id="clip0_605_19953">
<rect width="17.5738" height="17.5738" fill="white" transform="translate(49.0039 21.5) rotate(27.0931)"/>
</clipPath>
<clipPath id="clip1_605_19953">
<rect width="38" height="38" fill="white" transform="translate(22 25.5)"/>
</clipPath>
</defs>
</svg>
