<svg width="86" height="88" viewBox="0 0 86 88" fill="none" xmlns="http://www.w3.org/2000/svg">
<circle cx="43" cy="45" r="43" fill="black" fill-opacity="0.05"/>
<g filter="url(#filter0_bi_605_19975)">
<path fill-rule="evenodd" clip-rule="evenodd" d="M58.5207 26.194C58.4725 25.9933 58.3467 25.82 58.1707 25.7121C57.9948 25.6042 57.7833 25.5706 57.5826 25.6187L50.0907 27.4148L47.9502 27.928C47.8493 27.9503 47.7538 27.9925 47.6694 28.0521C47.585 28.1118 47.5133 28.1876 47.4586 28.2752C47.4038 28.3628 47.367 28.4605 47.3503 28.5625C47.3337 28.6645 47.3375 28.7687 47.3616 28.8692C47.3857 28.9697 47.4296 29.0644 47.4907 29.1478C47.5517 29.2311 47.6288 29.3015 47.7174 29.3547C47.8059 29.408 47.9042 29.4431 48.0065 29.4579C48.1087 29.4728 48.2129 29.4672 48.313 29.4413L48.6266 29.3661L45.9471 33.7355C45.6234 34.2633 45.5227 34.8982 45.667 35.5003C45.8114 36.1024 46.189 36.6226 46.7169 36.9463L53.3511 41.0147C53.879 41.3384 54.5138 41.4391 55.116 41.2948C55.7181 41.1504 56.2382 40.7728 56.5619 40.2449L59.2414 35.8756L59.3166 36.1892C59.3676 36.3868 59.4942 36.5564 59.669 36.6616C59.8439 36.7667 60.0531 36.799 60.2515 36.7514C60.45 36.7039 60.6218 36.5802 60.73 36.4072C60.8382 36.2342 60.8741 36.0256 60.8299 35.8264L58.5207 26.194Z" fill="url(#paint0_linear_605_19975)" fill-opacity="0.1"/>
<path fill-rule="evenodd" clip-rule="evenodd" d="M58.5207 26.194C58.4725 25.9933 58.3467 25.82 58.1707 25.7121C57.9948 25.6042 57.7833 25.5706 57.5826 25.6187L50.0907 27.4148L47.9502 27.928C47.8493 27.9503 47.7538 27.9925 47.6694 28.0521C47.585 28.1118 47.5133 28.1876 47.4586 28.2752C47.4038 28.3628 47.367 28.4605 47.3503 28.5625C47.3337 28.6645 47.3375 28.7687 47.3616 28.8692C47.3857 28.9697 47.4296 29.0644 47.4907 29.1478C47.5517 29.2311 47.6288 29.3015 47.7174 29.3547C47.8059 29.408 47.9042 29.4431 48.0065 29.4579C48.1087 29.4728 48.2129 29.4672 48.313 29.4413L48.6266 29.3661L45.9471 33.7355C45.6234 34.2633 45.5227 34.8982 45.667 35.5003C45.8114 36.1024 46.189 36.6226 46.7169 36.9463L53.3511 41.0147C53.879 41.3384 54.5138 41.4391 55.116 41.2948C55.7181 41.1504 56.2382 40.7728 56.5619 40.2449L59.2414 35.8756L59.3166 36.1892C59.3676 36.3868 59.4942 36.5564 59.669 36.6616C59.8439 36.7667 60.0531 36.799 60.2515 36.7514C60.45 36.7039 60.6218 36.5802 60.73 36.4072C60.8382 36.2342 60.8741 36.0256 60.8299 35.8264L58.5207 26.194Z" fill="black" fill-opacity="0.05"/>
</g>
<g filter="url(#filter1_ddd_605_19975)">
<path d="M56.0834 45.4722C55.9555 45.4729 55.8287 45.4484 55.7102 45.4C55.5917 45.3516 55.484 45.2804 55.3932 45.1903L41.5001 31.2875L27.6071 45.1903C27.4211 45.3495 27.1818 45.4328 26.9371 45.4233C26.6925 45.4139 26.4603 45.3124 26.2872 45.1393C26.1141 44.9661 26.0126 44.734 26.0032 44.4893C25.9937 44.2446 26.0769 44.0054 26.2362 43.8194L40.8196 29.2361C41.0017 29.055 41.2481 28.9534 41.505 28.9534C41.7618 28.9534 42.0082 29.055 42.1904 29.2361L56.7737 43.8194C56.9075 43.9559 56.9981 44.1288 57.0342 44.3165C57.0702 44.5042 57.0502 44.6983 56.9765 44.8747C56.9029 45.051 56.7789 45.2018 56.62 45.308C56.4612 45.4143 56.2746 45.4714 56.0834 45.4722Z" fill="black"/>
<path d="M56.0834 45.4722C55.9555 45.4729 55.8287 45.4484 55.7102 45.4C55.5917 45.3516 55.484 45.2804 55.3932 45.1903L41.5001 31.2875L27.6071 45.1903C27.4211 45.3495 27.1818 45.4328 26.9371 45.4233C26.6925 45.4139 26.4603 45.3124 26.2872 45.1393C26.1141 44.9661 26.0126 44.734 26.0032 44.4893C25.9937 44.2446 26.0769 44.0054 26.2362 43.8194L40.8196 29.2361C41.0017 29.055 41.2481 28.9534 41.505 28.9534C41.7618 28.9534 42.0082 29.055 42.1904 29.2361L56.7737 43.8194C56.9075 43.9559 56.9981 44.1288 57.0342 44.3165C57.0702 44.5042 57.0502 44.6983 56.9765 44.8747C56.9029 45.051 56.7789 45.2018 56.62 45.308C56.4612 45.4143 56.2746 45.4714 56.0834 45.4722Z" fill="url(#paint1_linear_605_19975)"/>
</g>
<g filter="url(#filter2_ddd_605_19975)">
<path d="M41.4999 34.5736L29.8333 46.2792V58.1111C29.8333 58.6268 30.0381 59.1214 30.4028 59.486C30.7674 59.8507 31.262 60.0556 31.7777 60.0556H38.5833V50.3333H44.4166V60.0556H51.2221C51.7378 60.0556 52.2324 59.8507 52.5971 59.486C52.9617 59.1214 53.1666 58.6268 53.1666 58.1111V46.2111L41.4999 34.5736Z" fill="black"/>
<path d="M41.4999 34.5736L29.8333 46.2792V58.1111C29.8333 58.6268 30.0381 59.1214 30.4028 59.486C30.7674 59.8507 31.262 60.0556 31.7777 60.0556H38.5833V50.3333H44.4166V60.0556H51.2221C51.7378 60.0556 52.2324 59.8507 52.5971 59.486C52.9617 59.1214 53.1666 58.6268 53.1666 58.1111V46.2111L41.4999 34.5736Z" fill="url(#paint2_linear_605_19975)"/>
</g>
<defs>
<filter id="filter0_bi_605_19975" x="32.6028" y="12.5973" width="41.2456" height="41.7618" filterUnits="userSpaceOnUse" color-interpolation-filters="sRGB">
<feFlood flood-opacity="0" result="BackgroundImageFix"/>
<feGaussianBlur in="BackgroundImageFix" stdDeviation="6.5"/>
<feComposite in2="SourceAlpha" operator="in" result="effect1_backgroundBlur_605_19975"/>
<feBlend mode="normal" in="SourceGraphic" in2="effect1_backgroundBlur_605_19975" result="shape"/>
<feColorMatrix in="SourceAlpha" type="matrix" values="0 0 0 0 0 0 0 0 0 0 0 0 0 0 0 0 0 0 127 0" result="hardAlpha"/>
<feOffset dx="-3"/>
<feGaussianBlur stdDeviation="4"/>
<feComposite in2="hardAlpha" operator="arithmetic" k2="-1" k3="1"/>
<feColorMatrix type="matrix" values="0 0 0 0 0.921569 0 0 0 0 0.294118 0 0 0 0 0.301961 0 0 0 0.5 0"/>
<feBlend mode="normal" in2="shape" result="effect2_innerShadow_605_19975"/>
</filter>
<filter id="filter1_ddd_605_19975" x="14.8751" y="23.3897" width="53.304" height="38.7734" filterUnits="userSpaceOnUse" color-interpolation-filters="sRGB">
<feFlood flood-opacity="0" result="BackgroundImageFix"/>
<feColorMatrix in="SourceAlpha" type="matrix" values="0 0 0 0 0 0 0 0 0 0 0 0 0 0 0 0 0 0 127 0" result="hardAlpha"/>
<feOffset/>
<feGaussianBlur stdDeviation="0.278183"/>
<feColorMatrix type="matrix" values="0 0 0 0 0.921569 0 0 0 0 0.294118 0 0 0 0 0.301961 0 0 0 0.12 0"/>
<feBlend mode="normal" in2="BackgroundImageFix" result="effect1_dropShadow_605_19975"/>
<feColorMatrix in="SourceAlpha" type="matrix" values="0 0 0 0 0 0 0 0 0 0 0 0 0 0 0 0 0 0 127 0" result="hardAlpha"/>
<feOffset dy="1.11273"/>
<feGaussianBlur stdDeviation="1.6691"/>
<feColorMatrix type="matrix" values="0 0 0 0 0.921569 0 0 0 0 0.294118 0 0 0 0 0.301961 0 0 0 0.12 0"/>
<feBlend mode="normal" in2="effect1_dropShadow_605_19975" result="effect2_dropShadow_605_19975"/>
<feColorMatrix in="SourceAlpha" type="matrix" values="0 0 0 0 0 0 0 0 0 0 0 0 0 0 0 0 0 0 127 0" result="hardAlpha"/>
<feOffset dy="5.56366"/>
<feGaussianBlur stdDeviation="5.56366"/>
<feColorMatrix type="matrix" values="0 0 0 0 0.921569 0 0 0 0 0.294118 0 0 0 0 0.301961 0 0 0 0.14 0"/>
<feBlend mode="normal" in2="effect2_dropShadow_605_19975" result="effect3_dropShadow_605_19975"/>
<feBlend mode="normal" in="SourceGraphic" in2="effect3_dropShadow_605_19975" result="shape"/>
</filter>
<filter id="filter2_ddd_605_19975" x="18.7059" y="29.0099" width="45.5879" height="47.7366" filterUnits="userSpaceOnUse" color-interpolation-filters="sRGB">
<feFlood flood-opacity="0" result="BackgroundImageFix"/>
<feColorMatrix in="SourceAlpha" type="matrix" values="0 0 0 0 0 0 0 0 0 0 0 0 0 0 0 0 0 0 127 0" result="hardAlpha"/>
<feOffset/>
<feGaussianBlur stdDeviation="0.278183"/>
<feColorMatrix type="matrix" values="0 0 0 0 0.921569 0 0 0 0 0.294118 0 0 0 0 0.301961 0 0 0 0.12 0"/>
<feBlend mode="normal" in2="BackgroundImageFix" result="effect1_dropShadow_605_19975"/>
<feColorMatrix in="SourceAlpha" type="matrix" values="0 0 0 0 0 0 0 0 0 0 0 0 0 0 0 0 0 0 127 0" result="hardAlpha"/>
<feOffset dy="1.11273"/>
<feGaussianBlur stdDeviation="1.6691"/>
<feColorMatrix type="matrix" values="0 0 0 0 0.921569 0 0 0 0 0.294118 0 0 0 0 0.301961 0 0 0 0.12 0"/>
<feBlend mode="normal" in2="effect1_dropShadow_605_19975" result="effect2_dropShadow_605_19975"/>
<feColorMatrix in="SourceAlpha" type="matrix" values="0 0 0 0 0 0 0 0 0 0 0 0 0 0 0 0 0 0 127 0" result="hardAlpha"/>
<feOffset dy="5.56366"/>
<feGaussianBlur stdDeviation="5.56366"/>
<feColorMatrix type="matrix" values="0 0 0 0 0.921569 0 0 0 0 0.294118 0 0 0 0 0.301961 0 0 0 0.14 0"/>
<feBlend mode="normal" in2="effect2_dropShadow_605_19975" result="effect3_dropShadow_605_19975"/>
<feBlend mode="normal" in="SourceGraphic" in2="effect3_dropShadow_605_19975" result="shape"/>
</filter>
<linearGradient id="paint0_linear_605_19975" x1="58.1626" y1="25.7071" x2="50.0259" y2="38.9755" gradientUnits="userSpaceOnUse">
<stop stop-color="#DC3C3E"/>
<stop offset="1" stop-color="#FF7375"/>
</linearGradient>
<linearGradient id="paint1_linear_605_19975" x1="41.527" y1="28.9534" x2="41.527" y2="45.4722" gradientUnits="userSpaceOnUse">
<stop stop-color="#DC3C3E"/>
<stop offset="1" stop-color="#FF7375"/>
</linearGradient>
<linearGradient id="paint2_linear_605_19975" x1="41.4999" y1="34.5736" x2="41.4999" y2="60.0555" gradientUnits="userSpaceOnUse">
<stop stop-color="#DC3C3E"/>
<stop offset="1" stop-color="#FF7375"/>
</linearGradient>
</defs>
</svg>
