<svg width="86" height="89" viewBox="0 0 86 89" fill="none" xmlns="http://www.w3.org/2000/svg">
<circle cx="43" cy="46" r="43" fill="black" fill-opacity="0.05"/>
<g filter="url(#filter0_bi_605_19988)">
<path fill-rule="evenodd" clip-rule="evenodd" d="M61.1916 37.9086C63.7421 33.4911 62.2285 27.8424 57.8109 25.2919V25.2919C53.3934 22.7414 47.7447 24.255 45.1942 28.6725V28.6725C42.6437 33.0901 44.1573 38.7388 48.5749 41.2893V41.2893C52.9924 43.8397 58.6411 42.3262 61.1916 37.9086V37.9086ZM49.3886 36.6536V36.6536C49.6652 36.4429 50.054 36.4862 50.3132 36.718C51.3303 37.6275 52.5031 37.8814 53.5259 37.1133C54.6059 36.3022 54.5251 35.1899 53.9465 33.9009L53.7139 33.4L55.8039 31.8304C56.2096 32.5391 56.1381 33.2152 55.7347 33.6245C55.6804 33.6786 55.6772 33.7714 55.7282 33.8395L56.3017 34.603C56.363 34.6847 56.4741 34.6997 56.5408 34.6362C57.4337 33.8061 57.3997 32.4645 56.6322 31.2189L57.1411 30.8367C57.2096 30.7853 57.2196 30.682 57.1634 30.6072L56.8045 30.1293C56.7483 30.0545 56.6463 30.0353 56.5779 30.0868L56.0643 30.4724C55.0527 29.349 53.7351 28.865 52.6006 29.717C51.5486 30.5071 51.6773 31.735 52.1508 32.7705L52.3682 33.2642L51.8485 33.6545C50.9443 34.3336 49.3821 33.7807 50.1551 32.9554V32.9554C50.2065 32.9008 50.2067 32.8102 50.1569 32.7439L49.5668 31.9582C49.5068 31.8783 49.3973 31.8621 49.3293 31.9239C48.6217 32.5613 48.342 33.6564 49.0052 35.002C49.1573 35.3106 49.0951 35.6931 48.82 35.8997V35.8997C48.7515 35.9511 48.7415 36.0544 48.7977 36.1292L49.1604 36.6122C49.2166 36.687 49.3202 36.705 49.3886 36.6536Z" fill="url(#paint0_linear_605_19988)" fill-opacity="0.1"/>
<path fill-rule="evenodd" clip-rule="evenodd" d="M61.1916 37.9086C63.7421 33.4911 62.2285 27.8424 57.8109 25.2919V25.2919C53.3934 22.7414 47.7447 24.255 45.1942 28.6725V28.6725C42.6437 33.0901 44.1573 38.7388 48.5749 41.2893V41.2893C52.9924 43.8397 58.6411 42.3262 61.1916 37.9086V37.9086ZM49.3886 36.6536V36.6536C49.6652 36.4429 50.054 36.4862 50.3132 36.718C51.3303 37.6275 52.5031 37.8814 53.5259 37.1133C54.6059 36.3022 54.5251 35.1899 53.9465 33.9009L53.7139 33.4L55.8039 31.8304C56.2096 32.5391 56.1381 33.2152 55.7347 33.6245C55.6804 33.6786 55.6772 33.7714 55.7282 33.8395L56.3017 34.603C56.363 34.6847 56.4741 34.6997 56.5408 34.6362C57.4337 33.8061 57.3997 32.4645 56.6322 31.2189L57.1411 30.8367C57.2096 30.7853 57.2196 30.682 57.1634 30.6072L56.8045 30.1293C56.7483 30.0545 56.6463 30.0353 56.5779 30.0868L56.0643 30.4724C55.0527 29.349 53.7351 28.865 52.6006 29.717C51.5486 30.5071 51.6773 31.735 52.1508 32.7705L52.3682 33.2642L51.8485 33.6545C50.9443 34.3336 49.3821 33.7807 50.1551 32.9554V32.9554C50.2065 32.9008 50.2067 32.8102 50.1569 32.7439L49.5668 31.9582C49.5068 31.8783 49.3973 31.8621 49.3293 31.9239C48.6217 32.5613 48.342 33.6564 49.0052 35.002C49.1573 35.3106 49.0951 35.6931 48.82 35.8997V35.8997C48.7515 35.9511 48.7415 36.0544 48.7977 36.1292L49.1604 36.6122C49.2166 36.687 49.3202 36.705 49.3886 36.6536Z" fill="white" fill-opacity="0.03"/>
<path d="M53.4666 30.7211C53.0713 31.0179 52.9653 31.5152 53.2071 32.2326C53.2376 32.3347 53.2743 32.4322 53.3209 32.5461L55.2506 31.0969C54.7062 30.5243 54.0315 30.2968 53.4666 30.7211Z" fill="url(#paint1_linear_605_19988)" fill-opacity="0.1"/>
<path d="M53.4666 30.7211C53.0713 31.0179 52.9653 31.5152 53.2071 32.2326C53.2376 32.3347 53.2743 32.4322 53.3209 32.5461L55.2506 31.0969C54.7062 30.5243 54.0315 30.2968 53.4666 30.7211Z" fill="white" fill-opacity="0.03"/>
<path d="M52.8505 34.2824V34.2824C52.8082 34.1949 52.6966 34.1639 52.6188 34.2224L51.6423 34.9558C51.1303 35.3403 51.0446 36.165 51.6656 36.3207C52.0022 36.405 52.3396 36.3471 52.6446 36.118C53.1224 35.7592 53.2306 35.2551 52.8505 34.2824Z" fill="url(#paint2_linear_605_19988)" fill-opacity="0.1"/>
<path d="M52.8505 34.2824V34.2824C52.8082 34.1949 52.6966 34.1639 52.6188 34.2224L51.6423 34.9558C51.1303 35.3403 51.0446 36.165 51.6656 36.3207C52.0022 36.405 52.3396 36.3471 52.6446 36.118C53.1224 35.7592 53.2306 35.2551 52.8505 34.2824Z" fill="white" fill-opacity="0.03"/>
</g>
<g filter="url(#filter1_ddd_605_19988)">
<path d="M39.0264 28.6546C29.9361 28.8883 22.755 36.4486 22.9888 45.5389C23.2225 54.6292 30.7828 61.8103 39.8731 61.5766C48.9634 61.3428 56.1446 53.7825 55.9108 44.6922C55.677 35.6019 48.1167 28.4208 39.0264 28.6546ZM40.4744 53.0751L40.5117 54.2397C40.5158 54.4014 40.3871 54.5407 40.2254 54.5449L39.1819 54.5717C39.0202 54.5759 38.8845 54.447 38.8804 54.2853L38.8507 53.1316C35.5817 52.973 33.998 51.1533 33.7807 49.1367C33.7615 48.9643 33.8937 48.8139 34.0664 48.8094L35.7639 48.7658C35.9072 48.7621 36.0348 48.8618 36.0604 49.0008C36.2778 50.1608 37.2077 51.0082 38.841 51.1832L38.7062 45.9399L37.7927 45.7318C35.8592 45.3219 33.9986 44.1711 33.9347 41.6873C33.8658 39.0087 35.8644 37.516 38.4593 37.1956L38.4281 35.983C38.4239 35.8214 38.5528 35.6857 38.7145 35.6815L39.747 35.655C39.9086 35.6508 40.0443 35.7797 40.0485 35.9414L40.0794 37.1429C42.6028 37.3317 44.5292 38.7528 44.8085 41.0363C44.8313 41.2085 44.6993 41.3626 44.5229 41.3672L42.8731 41.4096C42.7261 41.4134 42.5984 41.3064 42.5763 41.1635C42.4018 40.0944 41.5195 39.242 40.1146 39.087L40.2415 44.0216L41.1804 44.2144C43.5765 44.741 45.2262 45.8384 45.2917 48.3884C45.3629 51.1552 43.345 52.7513 40.4744 53.0751ZM36.2158 41.4595C36.2398 42.3927 36.8353 43.1018 38.0887 43.5181C38.2632 43.5835 38.4373 43.6341 38.6446 43.6876L38.5274 39.1315C37.176 39.339 36.1815 40.1257 36.2158 41.4595ZM40.6241 46.3171C40.5207 46.2977 40.4171 46.2746 40.2987 46.2446L40.4251 51.1571C41.9867 50.9773 43.0449 50.0897 43.0078 48.6493C42.9788 47.5213 42.3757 46.8015 40.6241 46.3171Z" fill="black"/>
<path d="M39.0264 28.6546C29.9361 28.8883 22.755 36.4486 22.9888 45.5389C23.2225 54.6292 30.7828 61.8103 39.8731 61.5766C48.9634 61.3428 56.1446 53.7825 55.9108 44.6922C55.677 35.6019 48.1167 28.4208 39.0264 28.6546ZM40.4744 53.0751L40.5117 54.2397C40.5158 54.4014 40.3871 54.5407 40.2254 54.5449L39.1819 54.5717C39.0202 54.5759 38.8845 54.447 38.8804 54.2853L38.8507 53.1316C35.5817 52.973 33.998 51.1533 33.7807 49.1367C33.7615 48.9643 33.8937 48.8139 34.0664 48.8094L35.7639 48.7658C35.9072 48.7621 36.0348 48.8618 36.0604 49.0008C36.2778 50.1608 37.2077 51.0082 38.841 51.1832L38.7062 45.9399L37.7927 45.7318C35.8592 45.3219 33.9986 44.1711 33.9347 41.6873C33.8658 39.0087 35.8644 37.516 38.4593 37.1956L38.4281 35.983C38.4239 35.8214 38.5528 35.6857 38.7145 35.6815L39.747 35.655C39.9086 35.6508 40.0443 35.7797 40.0485 35.9414L40.0794 37.1429C42.6028 37.3317 44.5292 38.7528 44.8085 41.0363C44.8313 41.2085 44.6993 41.3626 44.5229 41.3672L42.8731 41.4096C42.7261 41.4134 42.5984 41.3064 42.5763 41.1635C42.4018 40.0944 41.5195 39.242 40.1146 39.087L40.2415 44.0216L41.1804 44.2144C43.5765 44.741 45.2262 45.8384 45.2917 48.3884C45.3629 51.1552 43.345 52.7513 40.4744 53.0751ZM36.2158 41.4595C36.2398 42.3927 36.8353 43.1018 38.0887 43.5181C38.2632 43.5835 38.4373 43.6341 38.6446 43.6876L38.5274 39.1315C37.176 39.339 36.1815 40.1257 36.2158 41.4595ZM40.6241 46.3171C40.5207 46.2977 40.4171 46.2746 40.2987 46.2446L40.4251 51.1571C41.9867 50.9773 43.0449 50.0897 43.0078 48.6493C42.9788 47.5213 42.3757 46.8015 40.6241 46.3171Z" fill="url(#paint3_linear_605_19988)"/>
</g>
<defs>
<filter id="filter0_bi_605_19988" x="31.9009" y="11.9986" width="42.5839" height="42.584" filterUnits="userSpaceOnUse" color-interpolation-filters="sRGB">
<feFlood flood-opacity="0" result="BackgroundImageFix"/>
<feGaussianBlur in="BackgroundImageFix" stdDeviation="6.02721"/>
<feComposite in2="SourceAlpha" operator="in" result="effect1_backgroundBlur_605_19988"/>
<feBlend mode="normal" in="SourceGraphic" in2="effect1_backgroundBlur_605_19988" result="shape"/>
<feColorMatrix in="SourceAlpha" type="matrix" values="0 0 0 0 0 0 0 0 0 0 0 0 0 0 0 0 0 0 127 0" result="hardAlpha"/>
<feOffset dx="-2.78179"/>
<feGaussianBlur stdDeviation="3.70905"/>
<feComposite in2="hardAlpha" operator="arithmetic" k2="-1" k3="1"/>
<feColorMatrix type="matrix" values="0 0 0 0 0.854902 0 0 0 0 0.219608 0 0 0 0 0.239216 0 0 0 0.5 0"/>
<feBlend mode="normal" in2="shape" result="effect2_innerShadow_605_19988"/>
</filter>
<filter id="filter1_ddd_605_19988" x="12.5304" y="23.4227" width="53.8387" height="53.8387" filterUnits="userSpaceOnUse" color-interpolation-filters="sRGB">
<feFlood flood-opacity="0" result="BackgroundImageFix"/>
<feColorMatrix in="SourceAlpha" type="matrix" values="0 0 0 0 0 0 0 0 0 0 0 0 0 0 0 0 0 0 127 0" result="hardAlpha"/>
<feOffset/>
<feGaussianBlur stdDeviation="0.261319"/>
<feColorMatrix type="matrix" values="0 0 0 0 0.854902 0 0 0 0 0.219608 0 0 0 0 0.239216 0 0 0 0.12 0"/>
<feBlend mode="normal" in2="BackgroundImageFix" result="effect1_dropShadow_605_19988"/>
<feColorMatrix in="SourceAlpha" type="matrix" values="0 0 0 0 0 0 0 0 0 0 0 0 0 0 0 0 0 0 127 0" result="hardAlpha"/>
<feOffset dy="1.04528"/>
<feGaussianBlur stdDeviation="1.56792"/>
<feColorMatrix type="matrix" values="0 0 0 0 0.854902 0 0 0 0 0.219608 0 0 0 0 0.239216 0 0 0 0.12 0"/>
<feBlend mode="normal" in2="effect1_dropShadow_605_19988" result="effect2_dropShadow_605_19988"/>
<feColorMatrix in="SourceAlpha" type="matrix" values="0 0 0 0 0 0 0 0 0 0 0 0 0 0 0 0 0 0 127 0" result="hardAlpha"/>
<feOffset dy="5.22639"/>
<feGaussianBlur stdDeviation="5.22639"/>
<feColorMatrix type="matrix" values="0 0 0 0 0.854902 0 0 0 0 0.219608 0 0 0 0 0.239216 0 0 0 0.14 0"/>
<feBlend mode="normal" in2="effect2_dropShadow_605_19988" result="effect3_dropShadow_605_19988"/>
<feBlend mode="normal" in="SourceGraphic" in2="effect3_dropShadow_605_19988" result="shape"/>
</filter>
<linearGradient id="paint0_linear_605_19988" x1="57.8109" y1="25.2919" x2="48.5749" y2="41.2893" gradientUnits="userSpaceOnUse">
<stop stop-color="#DC3C3E"/>
<stop offset="1" stop-color="#FF7375"/>
</linearGradient>
<linearGradient id="paint1_linear_605_19988" x1="57.8109" y1="25.2919" x2="48.5749" y2="41.2893" gradientUnits="userSpaceOnUse">
<stop stop-color="#DC3C3E"/>
<stop offset="1" stop-color="#FF7375"/>
</linearGradient>
<linearGradient id="paint2_linear_605_19988" x1="57.8109" y1="25.2919" x2="48.5749" y2="41.2893" gradientUnits="userSpaceOnUse">
<stop stop-color="#DC3C3E"/>
<stop offset="1" stop-color="#FF7375"/>
</linearGradient>
<linearGradient id="paint3_linear_605_19988" x1="39.0264" y1="28.6546" x2="39.8731" y2="61.5766" gradientUnits="userSpaceOnUse">
<stop stop-color="#DC3C3E"/>
<stop offset="1" stop-color="#FF7375"/>
</linearGradient>
</defs>
</svg>
